<svg xmlns="http://www.w3.org/2000/svg" xmlns:xlink="http://www.w3.org/1999/xlink" width="1366" zoomAndPan="magnify" viewBox="0 0 1024.5 576" height="768" preserveAspectRatio="xMidYMid meet" version="1.0"><defs><g/><clipPath id="06df5b9113"><path d="M 0 0.140625 L 1024 0.140625 L 1024 575.859375 L 0 575.859375 Z M 0 0.140625 " clip-rule="nonzero"/></clipPath><linearGradient x1="0" gradientTransform="matrix(0.749634, 0, 0, 0.749634, 0, 0.140508)" y1="384" x2="1365.999943" gradientUnits="userSpaceOnUse" y2="384" id="7e7400f751"><stop stop-opacity="1" stop-color="rgb(0%, 28.999329%, 67.799377%)" offset="0"/><stop stop-opacity="1" stop-color="rgb(0.309753%, 29.051208%, 67.886353%)" offset="0.00390625"/><stop stop-opacity="1" stop-color="rgb(0.621033%, 29.104614%, 67.974854%)" offset="0.0078125"/><stop stop-opacity="1" stop-color="rgb(0.932312%, 29.156494%, 68.061829%)" offset="0.0117188"/><stop stop-opacity="1" stop-color="rgb(1.243591%, 29.208374%, 68.148804%)" offset="0.015625"/><stop stop-opacity="1" stop-color="rgb(1.553345%, 29.260254%, 68.235779%)" offset="0.0195312"/><stop stop-opacity="1" stop-color="rgb(1.864624%, 29.31366%, 68.32428%)" offset="0.0234375"/><stop stop-opacity="1" stop-color="rgb(2.175903%, 29.36554%, 68.411255%)" offset="0.0273438"/><stop stop-opacity="1" stop-color="rgb(2.487183%, 29.417419%, 68.499756%)" offset="0.03125"/><stop stop-opacity="1" stop-color="rgb(2.796936%, 29.469299%, 68.586731%)" offset="0.0351562"/><stop stop-opacity="1" stop-color="rgb(3.108215%, 29.522705%, 68.673706%)" offset="0.0390625"/><stop stop-opacity="1" stop-color="rgb(3.419495%, 29.574585%, 68.760681%)" offset="0.0429688"/><stop stop-opacity="1" stop-color="rgb(3.730774%, 29.627991%, 68.849182%)" offset="0.046875"/><stop stop-opacity="1" stop-color="rgb(4.040527%, 29.679871%, 68.936157%)" offset="0.0507812"/><stop stop-opacity="1" stop-color="rgb(4.351807%, 29.73175%, 69.024658%)" offset="0.0546875"/><stop stop-opacity="1" stop-color="rgb(4.663086%, 29.78363%, 69.111633%)" offset="0.0585938"/><stop stop-opacity="1" stop-color="rgb(4.974365%, 29.837036%, 69.198608%)" offset="0.0625"/><stop stop-opacity="1" stop-color="rgb(5.284119%, 29.888916%, 69.285583%)" offset="0.0664062"/><stop stop-opacity="1" stop-color="rgb(5.595398%, 29.940796%, 69.374084%)" offset="0.0703125"/><stop stop-opacity="1" stop-color="rgb(5.906677%, 29.992676%, 69.46106%)" offset="0.0742188"/><stop stop-opacity="1" stop-color="rgb(6.217957%, 30.046082%, 69.549561%)" offset="0.078125"/><stop stop-opacity="1" stop-color="rgb(6.529236%, 30.097961%, 69.636536%)" offset="0.0820312"/><stop stop-opacity="1" stop-color="rgb(6.840515%, 30.151367%, 69.723511%)" offset="0.0859375"/><stop stop-opacity="1" stop-color="rgb(7.150269%, 30.203247%, 69.810486%)" offset="0.0898438"/><stop stop-opacity="1" stop-color="rgb(7.461548%, 30.255127%, 69.898987%)" offset="0.09375"/><stop stop-opacity="1" stop-color="rgb(7.772827%, 30.307007%, 69.985962%)" offset="0.0976562"/><stop stop-opacity="1" stop-color="rgb(8.084106%, 30.360413%, 70.074463%)" offset="0.101562"/><stop stop-opacity="1" stop-color="rgb(8.39386%, 30.412292%, 70.161438%)" offset="0.105469"/><stop stop-opacity="1" stop-color="rgb(8.705139%, 30.464172%, 70.249939%)" offset="0.109375"/><stop stop-opacity="1" stop-color="rgb(9.016418%, 30.516052%, 70.336914%)" offset="0.113281"/><stop stop-opacity="1" stop-color="rgb(9.327698%, 30.569458%, 70.423889%)" offset="0.117188"/><stop stop-opacity="1" stop-color="rgb(9.637451%, 30.621338%, 70.510864%)" offset="0.121094"/><stop stop-opacity="1" stop-color="rgb(9.94873%, 30.674744%, 70.599365%)" offset="0.125"/><stop stop-opacity="1" stop-color="rgb(10.26001%, 30.726624%, 70.68634%)" offset="0.128906"/><stop stop-opacity="1" stop-color="rgb(10.571289%, 30.778503%, 70.774841%)" offset="0.132812"/><stop stop-opacity="1" stop-color="rgb(10.881042%, 30.830383%, 70.861816%)" offset="0.136719"/><stop stop-opacity="1" stop-color="rgb(11.192322%, 30.883789%, 70.948792%)" offset="0.140625"/><stop stop-opacity="1" stop-color="rgb(11.503601%, 30.935669%, 71.035767%)" offset="0.144531"/><stop stop-opacity="1" stop-color="rgb(11.81488%, 30.987549%, 71.124268%)" offset="0.148438"/><stop stop-opacity="1" stop-color="rgb(12.12616%, 31.039429%, 71.211243%)" offset="0.152344"/><stop stop-opacity="1" stop-color="rgb(12.437439%, 31.092834%, 71.299744%)" offset="0.15625"/><stop stop-opacity="1" stop-color="rgb(12.747192%, 31.144714%, 71.386719%)" offset="0.160156"/><stop stop-opacity="1" stop-color="rgb(13.058472%, 31.19812%, 71.473694%)" offset="0.164062"/><stop stop-opacity="1" stop-color="rgb(13.369751%, 31.25%, 71.560669%)" offset="0.167969"/><stop stop-opacity="1" stop-color="rgb(13.68103%, 31.30188%, 71.64917%)" offset="0.171875"/><stop stop-opacity="1" stop-color="rgb(13.990784%, 31.35376%, 71.736145%)" offset="0.175781"/><stop stop-opacity="1" stop-color="rgb(14.302063%, 31.407166%, 71.824646%)" offset="0.179688"/><stop stop-opacity="1" stop-color="rgb(14.613342%, 31.459045%, 71.911621%)" offset="0.183594"/><stop stop-opacity="1" stop-color="rgb(14.924622%, 31.512451%, 71.998596%)" offset="0.1875"/><stop stop-opacity="1" stop-color="rgb(15.234375%, 31.564331%, 72.085571%)" offset="0.191406"/><stop stop-opacity="1" stop-color="rgb(15.545654%, 31.616211%, 72.174072%)" offset="0.195312"/><stop stop-opacity="1" stop-color="rgb(15.856934%, 31.668091%, 72.261047%)" offset="0.199219"/><stop stop-opacity="1" stop-color="rgb(16.168213%, 31.721497%, 72.349548%)" offset="0.203125"/><stop stop-opacity="1" stop-color="rgb(16.477966%, 31.773376%, 72.436523%)" offset="0.207031"/><stop stop-opacity="1" stop-color="rgb(16.789246%, 31.825256%, 72.523499%)" offset="0.210938"/><stop stop-opacity="1" stop-color="rgb(17.100525%, 31.877136%, 72.610474%)" offset="0.214844"/><stop stop-opacity="1" stop-color="rgb(17.411804%, 31.930542%, 72.698975%)" offset="0.21875"/><stop stop-opacity="1" stop-color="rgb(17.723083%, 31.982422%, 72.78595%)" offset="0.222656"/><stop stop-opacity="1" stop-color="rgb(18.034363%, 32.035828%, 72.874451%)" offset="0.226562"/><stop stop-opacity="1" stop-color="rgb(18.344116%, 32.087708%, 72.961426%)" offset="0.230469"/><stop stop-opacity="1" stop-color="rgb(18.655396%, 32.139587%, 73.049927%)" offset="0.234375"/><stop stop-opacity="1" stop-color="rgb(18.966675%, 32.191467%, 73.136902%)" offset="0.238281"/><stop stop-opacity="1" stop-color="rgb(19.277954%, 32.244873%, 73.223877%)" offset="0.242188"/><stop stop-opacity="1" stop-color="rgb(19.587708%, 32.296753%, 73.310852%)" offset="0.246094"/><stop stop-opacity="1" stop-color="rgb(19.898987%, 32.348633%, 73.399353%)" offset="0.25"/><stop stop-opacity="1" stop-color="rgb(20.210266%, 32.400513%, 73.486328%)" offset="0.253906"/><stop stop-opacity="1" stop-color="rgb(20.521545%, 32.453918%, 73.574829%)" offset="0.257812"/><stop stop-opacity="1" stop-color="rgb(20.831299%, 32.505798%, 73.661804%)" offset="0.261719"/><stop stop-opacity="1" stop-color="rgb(21.142578%, 32.559204%, 73.748779%)" offset="0.265625"/><stop stop-opacity="1" stop-color="rgb(21.453857%, 32.611084%, 73.835754%)" offset="0.269531"/><stop stop-opacity="1" stop-color="rgb(21.765137%, 32.662964%, 73.924255%)" offset="0.273438"/><stop stop-opacity="1" stop-color="rgb(22.07489%, 32.714844%, 74.01123%)" offset="0.277344"/><stop stop-opacity="1" stop-color="rgb(22.386169%, 32.76825%, 74.099731%)" offset="0.28125"/><stop stop-opacity="1" stop-color="rgb(22.697449%, 32.820129%, 74.186707%)" offset="0.285156"/><stop stop-opacity="1" stop-color="rgb(23.008728%, 32.872009%, 74.273682%)" offset="0.289062"/><stop stop-opacity="1" stop-color="rgb(23.318481%, 32.923889%, 74.360657%)" offset="0.292969"/><stop stop-opacity="1" stop-color="rgb(23.629761%, 32.977295%, 74.449158%)" offset="0.296875"/><stop stop-opacity="1" stop-color="rgb(23.94104%, 33.029175%, 74.536133%)" offset="0.300781"/><stop stop-opacity="1" stop-color="rgb(24.252319%, 33.082581%, 74.624634%)" offset="0.304688"/><stop stop-opacity="1" stop-color="rgb(24.563599%, 33.13446%, 74.711609%)" offset="0.308594"/><stop stop-opacity="1" stop-color="rgb(24.874878%, 33.18634%, 74.798584%)" offset="0.3125"/><stop stop-opacity="1" stop-color="rgb(25.184631%, 33.23822%, 74.885559%)" offset="0.316406"/><stop stop-opacity="1" stop-color="rgb(25.495911%, 33.291626%, 74.97406%)" offset="0.320312"/><stop stop-opacity="1" stop-color="rgb(25.80719%, 33.343506%, 75.061035%)" offset="0.324219"/><stop stop-opacity="1" stop-color="rgb(26.118469%, 33.395386%, 75.149536%)" offset="0.328125"/><stop stop-opacity="1" stop-color="rgb(26.428223%, 33.447266%, 75.236511%)" offset="0.332031"/><stop stop-opacity="1" stop-color="rgb(26.739502%, 33.500671%, 75.323486%)" offset="0.335938"/><stop stop-opacity="1" stop-color="rgb(27.050781%, 33.552551%, 75.410461%)" offset="0.339844"/><stop stop-opacity="1" stop-color="rgb(27.362061%, 33.605957%, 75.498962%)" offset="0.34375"/><stop stop-opacity="1" stop-color="rgb(27.671814%, 33.657837%, 75.585938%)" offset="0.347656"/><stop stop-opacity="1" stop-color="rgb(27.983093%, 33.709717%, 75.674438%)" offset="0.351562"/><stop stop-opacity="1" stop-color="rgb(28.294373%, 33.761597%, 75.761414%)" offset="0.355469"/><stop stop-opacity="1" stop-color="rgb(28.605652%, 33.815002%, 75.849915%)" offset="0.359375"/><stop stop-opacity="1" stop-color="rgb(28.915405%, 33.866882%, 75.93689%)" offset="0.363281"/><stop stop-opacity="1" stop-color="rgb(29.226685%, 33.920288%, 76.023865%)" offset="0.367188"/><stop stop-opacity="1" stop-color="rgb(29.537964%, 33.972168%, 76.11084%)" offset="0.371094"/><stop stop-opacity="1" stop-color="rgb(29.849243%, 34.024048%, 76.199341%)" offset="0.375"/><stop stop-opacity="1" stop-color="rgb(30.160522%, 34.075928%, 76.286316%)" offset="0.378906"/><stop stop-opacity="1" stop-color="rgb(30.471802%, 34.129333%, 76.374817%)" offset="0.382812"/><stop stop-opacity="1" stop-color="rgb(30.781555%, 34.181213%, 76.461792%)" offset="0.386719"/><stop stop-opacity="1" stop-color="rgb(31.092834%, 34.233093%, 76.548767%)" offset="0.390625"/><stop stop-opacity="1" stop-color="rgb(31.404114%, 34.284973%, 76.635742%)" offset="0.394531"/><stop stop-opacity="1" stop-color="rgb(31.715393%, 34.338379%, 76.724243%)" offset="0.398438"/><stop stop-opacity="1" stop-color="rgb(32.025146%, 34.390259%, 76.811218%)" offset="0.402344"/><stop stop-opacity="1" stop-color="rgb(32.336426%, 34.443665%, 76.899719%)" offset="0.40625"/><stop stop-opacity="1" stop-color="rgb(32.647705%, 34.495544%, 76.986694%)" offset="0.410156"/><stop stop-opacity="1" stop-color="rgb(32.958984%, 34.547424%, 77.073669%)" offset="0.414062"/><stop stop-opacity="1" stop-color="rgb(33.268738%, 34.599304%, 77.160645%)" offset="0.417969"/><stop stop-opacity="1" stop-color="rgb(33.580017%, 34.65271%, 77.249146%)" offset="0.421875"/><stop stop-opacity="1" stop-color="rgb(33.891296%, 34.70459%, 77.336121%)" offset="0.425781"/><stop stop-opacity="1" stop-color="rgb(34.202576%, 34.75647%, 77.424622%)" offset="0.429688"/><stop stop-opacity="1" stop-color="rgb(34.512329%, 34.80835%, 77.511597%)" offset="0.433594"/><stop stop-opacity="1" stop-color="rgb(34.823608%, 34.861755%, 77.598572%)" offset="0.4375"/><stop stop-opacity="1" stop-color="rgb(35.134888%, 34.913635%, 77.685547%)" offset="0.441406"/><stop stop-opacity="1" stop-color="rgb(35.446167%, 34.967041%, 77.774048%)" offset="0.445312"/><stop stop-opacity="1" stop-color="rgb(35.757446%, 35.018921%, 77.861023%)" offset="0.449219"/><stop stop-opacity="1" stop-color="rgb(36.068726%, 35.070801%, 77.949524%)" offset="0.453125"/><stop stop-opacity="1" stop-color="rgb(36.378479%, 35.122681%, 78.036499%)" offset="0.457031"/><stop stop-opacity="1" stop-color="rgb(36.689758%, 35.176086%, 78.123474%)" offset="0.460938"/><stop stop-opacity="1" stop-color="rgb(37.001038%, 35.227966%, 78.210449%)" offset="0.464844"/><stop stop-opacity="1" stop-color="rgb(37.312317%, 35.279846%, 78.29895%)" offset="0.46875"/><stop stop-opacity="1" stop-color="rgb(37.62207%, 35.331726%, 78.385925%)" offset="0.472656"/><stop stop-opacity="1" stop-color="rgb(37.93335%, 35.385132%, 78.474426%)" offset="0.476562"/><stop stop-opacity="1" stop-color="rgb(38.244629%, 35.437012%, 78.561401%)" offset="0.480469"/><stop stop-opacity="1" stop-color="rgb(38.555908%, 35.490417%, 78.649902%)" offset="0.484375"/><stop stop-opacity="1" stop-color="rgb(38.865662%, 35.542297%, 78.736877%)" offset="0.488281"/><stop stop-opacity="1" stop-color="rgb(39.176941%, 35.594177%, 78.823853%)" offset="0.492188"/><stop stop-opacity="1" stop-color="rgb(39.48822%, 35.646057%, 78.910828%)" offset="0.496094"/><stop stop-opacity="1" stop-color="rgb(39.7995%, 35.699463%, 78.999329%)" offset="0.5"/><stop stop-opacity="1" stop-color="rgb(40.109253%, 35.751343%, 79.086304%)" offset="0.503906"/><stop stop-opacity="1" stop-color="rgb(40.420532%, 35.803223%, 79.174805%)" offset="0.507812"/><stop stop-opacity="1" stop-color="rgb(40.731812%, 35.855103%, 79.26178%)" offset="0.511719"/><stop stop-opacity="1" stop-color="rgb(41.043091%, 35.908508%, 79.348755%)" offset="0.515625"/><stop stop-opacity="1" stop-color="rgb(41.352844%, 35.960388%, 79.43573%)" offset="0.519531"/><stop stop-opacity="1" stop-color="rgb(41.664124%, 36.013794%, 79.524231%)" offset="0.523438"/><stop stop-opacity="1" stop-color="rgb(41.975403%, 36.065674%, 79.611206%)" offset="0.527344"/><stop stop-opacity="1" stop-color="rgb(42.286682%, 36.117554%, 79.699707%)" offset="0.53125"/><stop stop-opacity="1" stop-color="rgb(42.597961%, 36.169434%, 79.786682%)" offset="0.535156"/><stop stop-opacity="1" stop-color="rgb(42.909241%, 36.222839%, 79.873657%)" offset="0.539062"/><stop stop-opacity="1" stop-color="rgb(43.218994%, 36.274719%, 79.960632%)" offset="0.542969"/><stop stop-opacity="1" stop-color="rgb(43.530273%, 36.326599%, 80.049133%)" offset="0.546875"/><stop stop-opacity="1" stop-color="rgb(43.841553%, 36.378479%, 80.136108%)" offset="0.550781"/><stop stop-opacity="1" stop-color="rgb(44.152832%, 36.431885%, 80.224609%)" offset="0.554688"/><stop stop-opacity="1" stop-color="rgb(44.462585%, 36.483765%, 80.311584%)" offset="0.558594"/><stop stop-opacity="1" stop-color="rgb(44.773865%, 36.53717%, 80.39856%)" offset="0.5625"/><stop stop-opacity="1" stop-color="rgb(45.085144%, 36.58905%, 80.485535%)" offset="0.566406"/><stop stop-opacity="1" stop-color="rgb(45.396423%, 36.64093%, 80.574036%)" offset="0.570312"/><stop stop-opacity="1" stop-color="rgb(45.706177%, 36.69281%, 80.661011%)" offset="0.574219"/><stop stop-opacity="1" stop-color="rgb(46.017456%, 36.746216%, 80.749512%)" offset="0.578125"/><stop stop-opacity="1" stop-color="rgb(46.328735%, 36.798096%, 80.836487%)" offset="0.582031"/><stop stop-opacity="1" stop-color="rgb(46.640015%, 36.851501%, 80.924988%)" offset="0.585938"/><stop stop-opacity="1" stop-color="rgb(46.949768%, 36.903381%, 81.011963%)" offset="0.589844"/><stop stop-opacity="1" stop-color="rgb(47.261047%, 36.955261%, 81.098938%)" offset="0.59375"/><stop stop-opacity="1" stop-color="rgb(47.572327%, 37.007141%, 81.185913%)" offset="0.597656"/><stop stop-opacity="1" stop-color="rgb(47.883606%, 37.060547%, 81.274414%)" offset="0.601562"/><stop stop-opacity="1" stop-color="rgb(48.194885%, 37.112427%, 81.361389%)" offset="0.605469"/><stop stop-opacity="1" stop-color="rgb(48.506165%, 37.164307%, 81.44989%)" offset="0.609375"/><stop stop-opacity="1" stop-color="rgb(48.815918%, 37.216187%, 81.536865%)" offset="0.613281"/><stop stop-opacity="1" stop-color="rgb(49.127197%, 37.269592%, 81.62384%)" offset="0.617188"/><stop stop-opacity="1" stop-color="rgb(49.438477%, 37.321472%, 81.710815%)" offset="0.621094"/><stop stop-opacity="1" stop-color="rgb(49.749756%, 37.374878%, 81.799316%)" offset="0.625"/><stop stop-opacity="1" stop-color="rgb(50.059509%, 37.426758%, 81.886292%)" offset="0.628906"/><stop stop-opacity="1" stop-color="rgb(50.370789%, 37.478638%, 81.974792%)" offset="0.632812"/><stop stop-opacity="1" stop-color="rgb(50.682068%, 37.530518%, 82.061768%)" offset="0.636719"/><stop stop-opacity="1" stop-color="rgb(50.993347%, 37.583923%, 82.148743%)" offset="0.640625"/><stop stop-opacity="1" stop-color="rgb(51.303101%, 37.635803%, 82.235718%)" offset="0.644531"/><stop stop-opacity="1" stop-color="rgb(51.61438%, 37.687683%, 82.324219%)" offset="0.648438"/><stop stop-opacity="1" stop-color="rgb(51.925659%, 37.739563%, 82.411194%)" offset="0.652344"/><stop stop-opacity="1" stop-color="rgb(52.236938%, 37.792969%, 82.499695%)" offset="0.65625"/><stop stop-opacity="1" stop-color="rgb(52.546692%, 37.844849%, 82.58667%)" offset="0.660156"/><stop stop-opacity="1" stop-color="rgb(52.857971%, 37.898254%, 82.673645%)" offset="0.664062"/><stop stop-opacity="1" stop-color="rgb(53.16925%, 37.950134%, 82.76062%)" offset="0.667969"/><stop stop-opacity="1" stop-color="rgb(53.48053%, 38.002014%, 82.849121%)" offset="0.671875"/><stop stop-opacity="1" stop-color="rgb(53.791809%, 38.053894%, 82.936096%)" offset="0.675781"/><stop stop-opacity="1" stop-color="rgb(54.103088%, 38.1073%, 83.024597%)" offset="0.679688"/><stop stop-opacity="1" stop-color="rgb(54.412842%, 38.15918%, 83.111572%)" offset="0.683594"/><stop stop-opacity="1" stop-color="rgb(54.724121%, 38.21106%, 83.198547%)" offset="0.6875"/><stop stop-opacity="1" stop-color="rgb(55.0354%, 38.262939%, 83.285522%)" offset="0.691406"/><stop stop-opacity="1" stop-color="rgb(55.34668%, 38.316345%, 83.374023%)" offset="0.695312"/><stop stop-opacity="1" stop-color="rgb(55.656433%, 38.368225%, 83.460999%)" offset="0.699219"/><stop stop-opacity="1" stop-color="rgb(55.967712%, 38.421631%, 83.5495%)" offset="0.703125"/><stop stop-opacity="1" stop-color="rgb(56.278992%, 38.473511%, 83.636475%)" offset="0.707031"/><stop stop-opacity="1" stop-color="rgb(56.590271%, 38.525391%, 83.724976%)" offset="0.710938"/><stop stop-opacity="1" stop-color="rgb(56.900024%, 38.577271%, 83.811951%)" offset="0.714844"/><stop stop-opacity="1" stop-color="rgb(57.211304%, 38.630676%, 83.898926%)" offset="0.71875"/><stop stop-opacity="1" stop-color="rgb(57.522583%, 38.682556%, 83.985901%)" offset="0.722656"/><stop stop-opacity="1" stop-color="rgb(57.833862%, 38.734436%, 84.074402%)" offset="0.726562"/><stop stop-opacity="1" stop-color="rgb(58.143616%, 38.786316%, 84.161377%)" offset="0.730469"/><stop stop-opacity="1" stop-color="rgb(58.454895%, 38.839722%, 84.249878%)" offset="0.734375"/><stop stop-opacity="1" stop-color="rgb(58.766174%, 38.891602%, 84.336853%)" offset="0.738281"/><stop stop-opacity="1" stop-color="rgb(59.077454%, 38.945007%, 84.423828%)" offset="0.742188"/><stop stop-opacity="1" stop-color="rgb(59.387207%, 38.996887%, 84.510803%)" offset="0.746094"/><stop stop-opacity="1" stop-color="rgb(59.698486%, 39.048767%, 84.599304%)" offset="0.75"/><stop stop-opacity="1" stop-color="rgb(60.009766%, 39.100647%, 84.686279%)" offset="0.753906"/><stop stop-opacity="1" stop-color="rgb(60.321045%, 39.154053%, 84.77478%)" offset="0.757812"/><stop stop-opacity="1" stop-color="rgb(60.632324%, 39.205933%, 84.861755%)" offset="0.761719"/><stop stop-opacity="1" stop-color="rgb(60.943604%, 39.259338%, 84.94873%)" offset="0.765625"/><stop stop-opacity="1" stop-color="rgb(61.253357%, 39.311218%, 85.035706%)" offset="0.769531"/><stop stop-opacity="1" stop-color="rgb(61.564636%, 39.363098%, 85.124207%)" offset="0.773438"/><stop stop-opacity="1" stop-color="rgb(61.875916%, 39.414978%, 85.211182%)" offset="0.777344"/><stop stop-opacity="1" stop-color="rgb(62.187195%, 39.468384%, 85.299683%)" offset="0.78125"/><stop stop-opacity="1" stop-color="rgb(62.496948%, 39.520264%, 85.386658%)" offset="0.785156"/><stop stop-opacity="1" stop-color="rgb(62.808228%, 39.572144%, 85.473633%)" offset="0.789062"/><stop stop-opacity="1" stop-color="rgb(63.119507%, 39.624023%, 85.560608%)" offset="0.792969"/><stop stop-opacity="1" stop-color="rgb(63.430786%, 39.677429%, 85.649109%)" offset="0.796875"/><stop stop-opacity="1" stop-color="rgb(63.74054%, 39.729309%, 85.736084%)" offset="0.800781"/><stop stop-opacity="1" stop-color="rgb(64.051819%, 39.782715%, 85.824585%)" offset="0.804688"/><stop stop-opacity="1" stop-color="rgb(64.363098%, 39.834595%, 85.91156%)" offset="0.808594"/><stop stop-opacity="1" stop-color="rgb(64.674377%, 39.886475%, 85.998535%)" offset="0.8125"/><stop stop-opacity="1" stop-color="rgb(64.984131%, 39.938354%, 86.08551%)" offset="0.816406"/><stop stop-opacity="1" stop-color="rgb(65.29541%, 39.99176%, 86.174011%)" offset="0.820312"/><stop stop-opacity="1" stop-color="rgb(65.606689%, 40.04364%, 86.260986%)" offset="0.824219"/><stop stop-opacity="1" stop-color="rgb(65.917969%, 40.09552%, 86.349487%)" offset="0.828125"/><stop stop-opacity="1" stop-color="rgb(66.229248%, 40.1474%, 86.436462%)" offset="0.832031"/><stop stop-opacity="1" stop-color="rgb(66.540527%, 40.200806%, 86.524963%)" offset="0.835938"/><stop stop-opacity="1" stop-color="rgb(66.850281%, 40.252686%, 86.611938%)" offset="0.839844"/><stop stop-opacity="1" stop-color="rgb(67.16156%, 40.306091%, 86.698914%)" offset="0.84375"/><stop stop-opacity="1" stop-color="rgb(67.472839%, 40.357971%, 86.785889%)" offset="0.847656"/><stop stop-opacity="1" stop-color="rgb(67.784119%, 40.409851%, 86.87439%)" offset="0.851562"/><stop stop-opacity="1" stop-color="rgb(68.093872%, 40.461731%, 86.961365%)" offset="0.855469"/><stop stop-opacity="1" stop-color="rgb(68.405151%, 40.515137%, 87.049866%)" offset="0.859375"/><stop stop-opacity="1" stop-color="rgb(68.716431%, 40.567017%, 87.136841%)" offset="0.863281"/><stop stop-opacity="1" stop-color="rgb(69.02771%, 40.618896%, 87.223816%)" offset="0.867188"/><stop stop-opacity="1" stop-color="rgb(69.337463%, 40.670776%, 87.310791%)" offset="0.871094"/><stop stop-opacity="1" stop-color="rgb(69.648743%, 40.724182%, 87.399292%)" offset="0.875"/><stop stop-opacity="1" stop-color="rgb(69.960022%, 40.776062%, 87.486267%)" offset="0.878906"/><stop stop-opacity="1" stop-color="rgb(70.271301%, 40.829468%, 87.574768%)" offset="0.882812"/><stop stop-opacity="1" stop-color="rgb(70.581055%, 40.881348%, 87.661743%)" offset="0.886719"/><stop stop-opacity="1" stop-color="rgb(70.892334%, 40.933228%, 87.748718%)" offset="0.890625"/><stop stop-opacity="1" stop-color="rgb(71.203613%, 40.985107%, 87.835693%)" offset="0.894531"/><stop stop-opacity="1" stop-color="rgb(71.514893%, 41.038513%, 87.924194%)" offset="0.898438"/><stop stop-opacity="1" stop-color="rgb(71.826172%, 41.090393%, 88.011169%)" offset="0.902344"/><stop stop-opacity="1" stop-color="rgb(72.137451%, 41.142273%, 88.09967%)" offset="0.90625"/><stop stop-opacity="1" stop-color="rgb(72.447205%, 41.194153%, 88.186646%)" offset="0.910156"/><stop stop-opacity="1" stop-color="rgb(72.758484%, 41.247559%, 88.273621%)" offset="0.914062"/><stop stop-opacity="1" stop-color="rgb(73.069763%, 41.299438%, 88.360596%)" offset="0.917969"/><stop stop-opacity="1" stop-color="rgb(73.381042%, 41.352844%, 88.449097%)" offset="0.921875"/><stop stop-opacity="1" stop-color="rgb(73.690796%, 41.404724%, 88.536072%)" offset="0.925781"/><stop stop-opacity="1" stop-color="rgb(74.002075%, 41.456604%, 88.624573%)" offset="0.929688"/><stop stop-opacity="1" stop-color="rgb(74.313354%, 41.508484%, 88.711548%)" offset="0.933594"/><stop stop-opacity="1" stop-color="rgb(74.624634%, 41.56189%, 88.798523%)" offset="0.9375"/><stop stop-opacity="1" stop-color="rgb(74.934387%, 41.61377%, 88.885498%)" offset="0.941406"/><stop stop-opacity="1" stop-color="rgb(75.245667%, 41.667175%, 88.973999%)" offset="0.945312"/><stop stop-opacity="1" stop-color="rgb(75.556946%, 41.719055%, 89.060974%)" offset="0.949219"/><stop stop-opacity="1" stop-color="rgb(75.868225%, 41.770935%, 89.149475%)" offset="0.953125"/><stop stop-opacity="1" stop-color="rgb(76.177979%, 41.822815%, 89.23645%)" offset="0.957031"/><stop stop-opacity="1" stop-color="rgb(76.489258%, 41.876221%, 89.324951%)" offset="0.960938"/><stop stop-opacity="1" stop-color="rgb(76.800537%, 41.928101%, 89.411926%)" offset="0.964844"/><stop stop-opacity="1" stop-color="rgb(77.111816%, 41.97998%, 89.498901%)" offset="0.96875"/><stop stop-opacity="1" stop-color="rgb(77.42157%, 42.03186%, 89.585876%)" offset="0.972656"/><stop stop-opacity="1" stop-color="rgb(77.732849%, 42.085266%, 89.674377%)" offset="0.976562"/><stop stop-opacity="1" stop-color="rgb(78.044128%, 42.137146%, 89.761353%)" offset="0.980469"/><stop stop-opacity="1" stop-color="rgb(78.355408%, 42.190552%, 89.849854%)" offset="0.984375"/><stop stop-opacity="1" stop-color="rgb(78.666687%, 42.242432%, 89.936829%)" offset="0.988281"/><stop stop-opacity="1" stop-color="rgb(78.977966%, 42.294312%, 90.023804%)" offset="0.992188"/><stop stop-opacity="1" stop-color="rgb(79.28772%, 42.346191%, 90.110779%)" offset="0.996094"/><stop stop-opacity="1" stop-color="rgb(79.598999%, 42.399597%, 90.19928%)" offset="1"/></linearGradient><clipPath id="9dca64c0d1"><path d="M 364 264.753906 L 660 264.753906 L 660 311.234375 L 364 311.234375 Z M 364 264.753906 " clip-rule="nonzero"/></clipPath></defs><g clip-path="url(#06df5b9113)"><path fill="#ffffff" d="M 0 0.140625 L 1024 0.140625 L 1024 575.859375 L 0 575.859375 Z M 0 0.140625 " fill-opacity="1" fill-rule="nonzero"/><path fill="url(#7e7400f751)" d="M 0 0.140625 L 0 575.859375 L 1024 575.859375 L 1024 0.140625 Z M 0 0.140625 " fill-rule="nonzero"/></g><g clip-path="url(#9dca64c0d1)"><path fill="#ececec" d="M 655.160156 311.234375 L 369.128906 311.234375 C 366.753906 311.234375 364.824219 309.304688 364.824219 306.929688 L 364.824219 269.058594 C 364.824219 266.683594 366.753906 264.753906 369.128906 264.753906 L 655.160156 264.753906 C 657.539062 264.753906 659.46875 266.683594 659.46875 269.058594 L 659.46875 306.929688 C 659.46875 309.304688 657.539062 311.234375 655.160156 311.234375 Z M 655.160156 311.234375 " fill-opacity="1" fill-rule="nonzero"/></g><g fill="#ffffff" fill-opacity="1"><g transform="translate(231.871597, 109.81563)"><g><path d="M 46.953125 -21.140625 C 48.484375 -21.140625 49.644531 -20.828125 50.4375 -20.203125 C 51.226562 -19.578125 51.625 -18.6875 51.625 -17.53125 C 51.625 -17.039062 51.546875 -16.5 51.390625 -15.90625 L 48.6875 -6.3125 C 47.96875 -3.957031 46.96875 -2.316406 45.6875 -1.390625 C 44.40625 -0.460938 42.507812 0 40 0 L 1.46875 0 C 0.320312 0 -0.5625 -0.1875 -1.1875 -0.5625 C -1.8125 -0.945312 -2.125 -1.46875 -2.125 -2.125 C -2.125 -2.457031 -2.046875 -2.816406 -1.890625 -3.203125 C -1.722656 -3.640625 -1.445312 -4.003906 -1.0625 -4.296875 C -0.675781 -4.597656 -0.269531 -4.882812 0.15625 -5.15625 C 1.03125 -5.707031 1.738281 -6.269531 2.28125 -6.84375 C 2.832031 -7.414062 3.300781 -8.359375 3.6875 -9.671875 L 13.6875 -45 C 13.90625 -45.707031 14.015625 -46.390625 14.015625 -47.046875 C 14.015625 -47.640625 13.914062 -48.140625 13.71875 -48.546875 C 13.53125 -48.960938 13.273438 -49.441406 12.953125 -49.984375 C 12.460938 -50.703125 12.21875 -51.28125 12.21875 -51.71875 C 12.21875 -51.875 12.269531 -52.171875 12.375 -52.609375 C 12.59375 -53.316406 13.070312 -53.820312 13.8125 -54.125 C 14.550781 -54.425781 15.679688 -54.578125 17.203125 -54.578125 L 36.46875 -54.578125 C 37.613281 -54.578125 38.5 -54.398438 39.125 -54.046875 C 39.757812 -53.691406 40.078125 -53.1875 40.078125 -52.53125 C 40.078125 -52.257812 39.992188 -51.90625 39.828125 -51.46875 C 39.660156 -51.082031 39.425781 -50.738281 39.125 -50.4375 C 38.832031 -50.132812 38.5625 -49.914062 38.3125 -49.78125 C 38.0625 -49.644531 37.882812 -49.523438 37.78125 -49.421875 C 36.90625 -48.929688 36.191406 -48.382812 35.640625 -47.78125 C 35.097656 -47.175781 34.632812 -46.25 34.25 -45 L 23.6875 -7.875 L 28.765625 -7.875 C 30.023438 -7.875 31.101562 -8.085938 32 -8.515625 C 32.90625 -8.953125 33.847656 -9.773438 34.828125 -10.984375 L 40.484375 -17.703125 C 41.523438 -18.898438 42.519531 -19.769531 43.46875 -20.3125 C 44.425781 -20.863281 45.585938 -21.140625 46.953125 -21.140625 Z M 46.953125 -21.140625 "/></g></g></g><g fill="#ffffff" fill-opacity="1"><g transform="translate(283.175974, 109.81563)"><g><path d="M 31.71875 -43.359375 C 39.144531 -43.359375 44.617188 -41.851562 48.140625 -38.84375 C 51.671875 -35.84375 53.4375 -31.910156 53.4375 -27.046875 C 53.4375 -25.398438 53.21875 -23.566406 52.78125 -21.546875 C 51.738281 -17.066406 49.796875 -13.144531 46.953125 -9.78125 C 44.117188 -6.425781 40.640625 -3.832031 36.515625 -2 C 32.390625 -0.175781 27.921875 0.734375 23.109375 0.734375 C 15.515625 0.734375 9.898438 -0.78125 6.265625 -3.8125 C 2.628906 -6.84375 0.8125 -10.875 0.8125 -15.90625 C 0.8125 -17.59375 1.03125 -19.472656 1.46875 -21.546875 C 2.507812 -25.816406 4.488281 -29.601562 7.40625 -32.90625 C 10.332031 -36.207031 13.910156 -38.773438 18.140625 -40.609375 C 22.378906 -42.441406 26.90625 -43.359375 31.71875 -43.359375 Z M 31.46875 -36.0625 C 30.320312 -36.0625 29.101562 -35.035156 27.8125 -32.984375 C 26.53125 -30.929688 25.019531 -27.066406 23.28125 -21.390625 C 21.53125 -15.703125 20.65625 -11.710938 20.65625 -9.421875 C 20.65625 -8.222656 20.84375 -7.414062 21.21875 -7 C 21.601562 -6.59375 22.125 -6.390625 22.78125 -6.390625 C 23.925781 -6.285156 25.113281 -7.269531 26.34375 -9.34375 C 27.570312 -11.414062 29.117188 -15.457031 30.984375 -21.46875 C 32.671875 -26.769531 33.515625 -30.625 33.515625 -33.03125 C 33.515625 -34.175781 33.335938 -34.96875 32.984375 -35.40625 C 32.628906 -35.84375 32.125 -36.0625 31.46875 -36.0625 Z M 31.46875 -36.0625 "/></g></g></g><g fill="#ffffff" fill-opacity="1"><g transform="translate(334.890136, 109.81563)"><g><path d="M 40 -43.359375 C 42.894531 -43.359375 45.296875 -42.316406 47.203125 -40.234375 C 49.117188 -38.160156 50.078125 -35.320312 50.078125 -31.71875 C 50.078125 -26.851562 48.378906 -21.878906 44.984375 -16.796875 C 41.597656 -11.710938 37.3125 -7.519531 32.125 -4.21875 C 26.9375 -0.914062 21.882812 0.734375 16.96875 0.734375 C 12.269531 0.734375 8.457031 -0.21875 5.53125 -2.125 C 2.601562 -4.039062 1.140625 -6.773438 1.140625 -10.328125 C 1.140625 -11.640625 1.390625 -13.113281 1.890625 -14.75 L 7.046875 -32.375 C 7.160156 -32.8125 7.21875 -33.140625 7.21875 -33.359375 C 7.21875 -33.898438 7.078125 -34.363281 6.796875 -34.75 C 6.523438 -35.132812 6.144531 -35.546875 5.65625 -35.984375 C 4.832031 -36.691406 4.421875 -37.316406 4.421875 -37.859375 C 4.367188 -38.628906 4.832031 -39.445312 5.8125 -40.3125 C 6.800781 -41.1875 8.179688 -41.910156 9.953125 -42.484375 C 11.734375 -43.066406 13.742188 -43.359375 15.984375 -43.359375 C 19.640625 -43.359375 22.492188 -42.46875 24.546875 -40.6875 C 26.597656 -38.914062 27.625 -36.609375 27.625 -33.765625 C 27.625 -32.503906 27.40625 -31.140625 26.96875 -29.671875 L 21.640625 -12.125 C 21.472656 -11.632812 21.390625 -11.226562 21.390625 -10.90625 C 21.390625 -10.1875 21.632812 -9.632812 22.125 -9.25 C 22.613281 -8.875 23.296875 -8.6875 24.171875 -8.6875 C 25.378906 -8.6875 26.785156 -9.21875 28.390625 -10.28125 C 30.003906 -11.351562 31.601562 -12.882812 33.1875 -14.875 C 34.769531 -16.863281 36.054688 -19.226562 37.046875 -21.96875 C 34.859375 -23.875 33.3125 -25.753906 32.40625 -27.609375 C 31.507812 -29.472656 31.0625 -31.390625 31.0625 -33.359375 C 31.0625 -36.140625 31.828125 -38.5 33.359375 -40.4375 C 34.890625 -42.382812 37.101562 -43.359375 40 -43.359375 Z M 40 -43.359375 "/></g></g></g><g fill="#ffffff" fill-opacity="1"><g transform="translate(381.932799, 109.81563)"><g><path d="M 27.78125 -43.765625 C 34.71875 -43.765625 39.742188 -42.65625 42.859375 -40.4375 C 45.972656 -38.226562 47.53125 -35.40625 47.53125 -31.96875 C 47.53125 -30.925781 47.421875 -29.96875 47.203125 -29.09375 C 46.378906 -25.488281 44.097656 -22.90625 40.359375 -21.34375 C 36.617188 -19.789062 32.207031 -19.015625 27.125 -19.015625 C 24.5625 -19.015625 22.160156 -19.175781 19.921875 -19.5 C 19.859375 -16.664062 20.617188 -14.671875 22.203125 -13.515625 C 23.785156 -12.367188 26 -11.796875 28.84375 -11.796875 C 30.15625 -11.796875 31.410156 -11.945312 32.609375 -12.25 C 33.816406 -12.550781 35.347656 -13.003906 37.203125 -13.609375 C 38.734375 -14.148438 39.773438 -14.421875 40.328125 -14.421875 C 40.921875 -14.421875 41.21875 -14.066406 41.21875 -13.359375 C 41.269531 -11.441406 40.554688 -9.429688 39.078125 -7.328125 C 37.609375 -5.222656 35.425781 -3.429688 32.53125 -1.953125 C 29.632812 -0.484375 26.140625 0.25 22.046875 0.25 C 15.984375 0.25 11.007812 -1.28125 7.125 -4.34375 C 3.25 -7.40625 1.3125 -11.859375 1.3125 -17.703125 C 1.3125 -19.335938 1.53125 -21.25 1.96875 -23.4375 C 3.332031 -30.15625 6.320312 -35.222656 10.9375 -38.640625 C 15.550781 -42.054688 21.164062 -43.765625 27.78125 -43.765625 Z M 20.484375 -24.421875 C 20.703125 -24.367188 21.003906 -24.34375 21.390625 -24.34375 C 23.679688 -24.34375 25.425781 -25.40625 26.625 -27.53125 C 27.832031 -29.664062 28.410156 -32.046875 28.359375 -34.671875 C 28.304688 -36.191406 27.867188 -36.953125 27.046875 -36.953125 C 26.441406 -36.953125 25.726562 -36.472656 24.90625 -35.515625 C 24.09375 -34.566406 23.289062 -33.132812 22.5 -31.21875 C 21.707031 -29.3125 21.035156 -27.046875 20.484375 -24.421875 Z M 20.484375 -24.421875 "/></g></g></g><g fill="#ffffff" fill-opacity="1"><g transform="translate(425.779166, 109.81563)"><g><path d="M 65.40625 -54.90625 C 67.800781 -54.90625 69.765625 -54.125 71.296875 -52.5625 C 72.828125 -51.007812 73.59375 -49.03125 73.59375 -46.625 C 73.59375 -46.300781 73.539062 -45.703125 73.4375 -44.828125 C 73 -42.203125 71.972656 -40.257812 70.359375 -39 C 68.742188 -37.75 66.875 -37.125 64.75 -37.125 C 63.320312 -37.125 62.113281 -37.34375 61.125 -37.78125 C 60.144531 -38.21875 59.21875 -38.957031 58.34375 -40 L 44.828125 -22.375 L 41.0625 -9.671875 C 40.945312 -9.335938 40.890625 -8.898438 40.890625 -8.359375 C 40.890625 -7.597656 41.082031 -6.957031 41.46875 -6.4375 C 41.851562 -5.914062 42.398438 -5.351562 43.109375 -4.75 C 43.710938 -4.207031 44.148438 -3.742188 44.421875 -3.359375 C 44.691406 -2.972656 44.742188 -2.535156 44.578125 -2.046875 C 44.359375 -1.285156 43.828125 -0.753906 42.984375 -0.453125 C 42.140625 -0.148438 40.976562 0 39.5 0 L 18.84375 0 C 17.425781 0 16.375 -0.257812 15.6875 -0.78125 C 15.007812 -1.300781 14.78125 -2.023438 15 -2.953125 C 15.101562 -3.441406 15.304688 -3.835938 15.609375 -4.140625 C 15.910156 -4.441406 16.390625 -4.8125 17.046875 -5.25 C 17.867188 -5.738281 18.550781 -6.296875 19.09375 -6.921875 C 19.644531 -7.554688 20.109375 -8.472656 20.484375 -9.671875 L 24.265625 -22.453125 L 16.71875 -43.921875 C 16.175781 -45.503906 15.535156 -46.71875 14.796875 -47.5625 C 14.054688 -48.414062 13.195312 -49.253906 12.21875 -50.078125 C 11.613281 -50.515625 11.171875 -50.894531 10.890625 -51.21875 C 10.617188 -51.550781 10.484375 -51.9375 10.484375 -52.375 C 10.484375 -53.019531 10.769531 -53.546875 11.34375 -53.953125 C 11.925781 -54.367188 12.757812 -54.578125 13.84375 -54.578125 L 35.734375 -54.578125 C 37.640625 -54.578125 38.945312 -54.410156 39.65625 -54.078125 C 40.375 -53.753906 40.757812 -53.1875 40.8125 -52.375 C 40.8125 -51.875 40.703125 -51.445312 40.484375 -51.09375 C 40.265625 -50.738281 39.9375 -50.316406 39.5 -49.828125 C 39.007812 -49.171875 38.640625 -48.632812 38.390625 -48.21875 C 38.148438 -47.8125 38.03125 -47.3125 38.03125 -46.71875 C 38.03125 -46.550781 38.082031 -46.191406 38.1875 -45.640625 L 41.953125 -31.21875 L 52.375 -46.0625 C 54.613281 -49.226562 56.726562 -51.492188 58.71875 -52.859375 C 60.707031 -54.222656 62.9375 -54.90625 65.40625 -54.90625 Z M 65.40625 -54.90625 "/></g></g></g><g fill="#ffffff" fill-opacity="1"><g transform="translate(488.393471, 109.81563)"><g><path d="M 31.71875 -43.359375 C 39.144531 -43.359375 44.617188 -41.851562 48.140625 -38.84375 C 51.671875 -35.84375 53.4375 -31.910156 53.4375 -27.046875 C 53.4375 -25.398438 53.21875 -23.566406 52.78125 -21.546875 C 51.738281 -17.066406 49.796875 -13.144531 46.953125 -9.78125 C 44.117188 -6.425781 40.640625 -3.832031 36.515625 -2 C 32.390625 -0.175781 27.921875 0.734375 23.109375 0.734375 C 15.515625 0.734375 9.898438 -0.78125 6.265625 -3.8125 C 2.628906 -6.84375 0.8125 -10.875 0.8125 -15.90625 C 0.8125 -17.59375 1.03125 -19.472656 1.46875 -21.546875 C 2.507812 -25.816406 4.488281 -29.601562 7.40625 -32.90625 C 10.332031 -36.207031 13.910156 -38.773438 18.140625 -40.609375 C 22.378906 -42.441406 26.90625 -43.359375 31.71875 -43.359375 Z M 31.46875 -36.0625 C 30.320312 -36.0625 29.101562 -35.035156 27.8125 -32.984375 C 26.53125 -30.929688 25.019531 -27.066406 23.28125 -21.390625 C 21.53125 -15.703125 20.65625 -11.710938 20.65625 -9.421875 C 20.65625 -8.222656 20.84375 -7.414062 21.21875 -7 C 21.601562 -6.59375 22.125 -6.390625 22.78125 -6.390625 C 23.925781 -6.285156 25.113281 -7.269531 26.34375 -9.34375 C 27.570312 -11.414062 29.117188 -15.457031 30.984375 -21.46875 C 32.671875 -26.769531 33.515625 -30.625 33.515625 -33.03125 C 33.515625 -34.175781 33.335938 -34.96875 32.984375 -35.40625 C 32.628906 -35.84375 32.125 -36.0625 31.46875 -36.0625 Z M 31.46875 -36.0625 "/></g></g></g><g fill="#ffffff" fill-opacity="1"><g transform="translate(540.107633, 109.81563)"><g><path d="M 48.6875 -11.3125 C 48.570312 -10.875 48.515625 -10.546875 48.515625 -10.328125 C 48.515625 -9.941406 48.609375 -9.640625 48.796875 -9.421875 C 48.992188 -9.203125 49.253906 -9.09375 49.578125 -9.09375 C 50.234375 -9.09375 50.789062 -9.378906 51.25 -9.953125 C 51.71875 -10.523438 52.035156 -10.8125 52.203125 -10.8125 C 52.472656 -10.8125 52.703125 -10.632812 52.890625 -10.28125 C 53.085938 -9.925781 53.1875 -9.503906 53.1875 -9.015625 C 53.238281 -7.484375 52.691406 -5.96875 51.546875 -4.46875 C 50.398438 -2.96875 48.785156 -1.722656 46.703125 -0.734375 C 44.628906 0.242188 42.3125 0.734375 39.75 0.734375 C 36.519531 0.734375 33.945312 0.078125 32.03125 -1.234375 C 30.125 -2.546875 28.898438 -4.265625 28.359375 -6.390625 C 26.390625 -4.203125 24.21875 -2.546875 21.84375 -1.421875 C 19.46875 -0.304688 17.050781 0.25 14.59375 0.25 C 10.757812 0.25 7.546875 -0.691406 4.953125 -2.578125 C 2.359375 -4.460938 1.0625 -7.097656 1.0625 -10.484375 C 1.0625 -12.015625 1.335938 -13.601562 1.890625 -15.25 L 7.125 -32.375 C 7.289062 -32.863281 7.375 -33.269531 7.375 -33.59375 C 7.375 -34.195312 7.238281 -34.675781 6.96875 -35.03125 C 6.695312 -35.382812 6.285156 -35.753906 5.734375 -36.140625 C 5.191406 -36.578125 4.8125 -36.957031 4.59375 -37.28125 C 4.375 -37.613281 4.34375 -38.050781 4.5 -38.59375 C 4.832031 -39.851562 6.554688 -40.960938 9.671875 -41.921875 C 12.785156 -42.878906 16.035156 -43.359375 19.421875 -43.359375 C 22.585938 -43.359375 24.910156 -42.753906 26.390625 -41.546875 C 27.867188 -40.347656 28.609375 -38.710938 28.609375 -36.640625 C 28.609375 -35.378906 28.414062 -34.175781 28.03125 -33.03125 L 22.859375 -15.984375 C 22.640625 -15.378906 22.53125 -14.804688 22.53125 -14.265625 C 22.53125 -13.492188 22.75 -12.914062 23.1875 -12.53125 C 23.625 -12.15625 24.195312 -11.96875 24.90625 -11.96875 C 25.945312 -11.96875 26.796875 -12.265625 27.453125 -12.859375 C 28.109375 -13.460938 28.765625 -14.476562 29.421875 -15.90625 L 34.421875 -32.375 C 34.585938 -32.863281 34.671875 -33.269531 34.671875 -33.59375 C 34.671875 -34.195312 34.53125 -34.675781 34.25 -35.03125 C 33.976562 -35.382812 33.597656 -35.753906 33.109375 -36.140625 C 32.566406 -36.578125 32.1875 -36.957031 31.96875 -37.28125 C 31.75 -37.613281 31.71875 -38.050781 31.875 -38.59375 C 32.15625 -39.851562 33.847656 -40.960938 36.953125 -41.921875 C 40.066406 -42.878906 43.320312 -43.359375 46.71875 -43.359375 C 49.882812 -43.359375 52.21875 -42.753906 53.71875 -41.546875 C 55.21875 -40.347656 55.96875 -38.738281 55.96875 -36.71875 C 55.96875 -35.675781 55.75 -34.445312 55.3125 -33.03125 Z M 48.6875 -11.3125 "/></g></g></g><g fill="#ffffff" fill-opacity="1"><g transform="translate(594.28048, 109.81563)"><g><path d="M 40.234375 -43.359375 C 43.296875 -43.359375 45.738281 -42.425781 47.5625 -40.5625 C 49.394531 -38.707031 50.3125 -36.414062 50.3125 -33.6875 C 50.3125 -32.644531 50.203125 -31.6875 49.984375 -30.8125 C 49.441406 -28.570312 48.40625 -26.847656 46.875 -25.640625 C 45.34375 -24.441406 43.515625 -23.84375 41.390625 -23.84375 C 39.304688 -23.84375 37.734375 -24.332031 36.671875 -25.3125 C 35.609375 -26.300781 34.664062 -27.613281 33.84375 -29.25 C 33.40625 -30.1875 32.992188 -30.875 32.609375 -31.3125 C 32.234375 -31.75 31.800781 -31.96875 31.3125 -31.96875 C 30.757812 -31.96875 30.273438 -31.75 29.859375 -31.3125 C 29.453125 -30.875 29.085938 -30.109375 28.765625 -29.015625 L 22.453125 -8.515625 C 22.347656 -8.242188 22.296875 -7.835938 22.296875 -7.296875 C 22.296875 -6.585938 22.5 -6 22.90625 -5.53125 C 23.3125 -5.0625 23.867188 -4.609375 24.578125 -4.171875 C 25.234375 -3.742188 25.671875 -3.390625 25.890625 -3.109375 C 26.109375 -2.835938 26.191406 -2.484375 26.140625 -2.046875 C 26.035156 -1.335938 25.640625 -0.816406 24.953125 -0.484375 C 24.273438 -0.160156 23.113281 0 21.46875 0 L 0.484375 0 C -0.929688 0 -1.953125 -0.226562 -2.578125 -0.6875 C -3.210938 -1.15625 -3.445312 -1.773438 -3.28125 -2.546875 C -3.0625 -3.203125 -2.488281 -3.773438 -1.5625 -4.265625 C -0.738281 -4.703125 -0.0546875 -5.21875 0.484375 -5.8125 C 1.035156 -6.414062 1.503906 -7.375 1.890625 -8.6875 L 9.171875 -32.375 C 9.285156 -32.644531 9.34375 -33.023438 9.34375 -33.515625 C 9.34375 -34.117188 9.21875 -34.582031 8.96875 -34.90625 C 8.726562 -35.238281 8.332031 -35.648438 7.78125 -36.140625 C 7.238281 -36.578125 6.859375 -36.957031 6.640625 -37.28125 C 6.421875 -37.613281 6.394531 -38.050781 6.5625 -38.59375 C 6.882812 -39.851562 8.601562 -40.960938 11.71875 -41.921875 C 14.832031 -42.878906 18.082031 -43.359375 21.46875 -43.359375 C 23.707031 -43.359375 25.5625 -42.851562 27.03125 -41.84375 C 28.507812 -40.832031 29.46875 -39.394531 29.90625 -37.53125 C 32.53125 -41.414062 35.972656 -43.359375 40.234375 -43.359375 Z M 40.234375 -43.359375 "/></g></g></g><g fill="#ffffff" fill-opacity="1"><g transform="translate(639.684039, 109.81563)"><g><path d="M 26.96875 -44.09375 C 31.5 -44.09375 35.414062 -43.679688 38.71875 -42.859375 C 42.03125 -42.035156 44.570312 -40.882812 46.34375 -39.40625 C 48.125 -37.9375 49.015625 -36.273438 49.015625 -34.421875 C 49.015625 -32.503906 48.257812 -30.945312 46.75 -29.75 C 45.25 -28.550781 43.160156 -27.953125 40.484375 -27.953125 C 37.753906 -27.953125 35.445312 -28.632812 33.5625 -30 C 31.675781 -31.363281 30.734375 -33.082031 30.734375 -35.15625 C 30.734375 -35.863281 30.84375 -36.546875 31.0625 -37.203125 C 30.070312 -37.472656 29.195312 -37.609375 28.4375 -37.609375 C 27.070312 -37.609375 25.9375 -37.28125 25.03125 -36.625 C 24.132812 -35.976562 23.710938 -35.050781 23.765625 -33.84375 C 23.765625 -32.425781 24.472656 -31.222656 25.890625 -30.234375 C 27.316406 -29.253906 29.613281 -28.023438 32.78125 -26.546875 C 35.507812 -25.347656 37.757812 -24.242188 39.53125 -23.234375 C 41.3125 -22.222656 42.816406 -20.953125 44.046875 -19.421875 C 45.273438 -17.890625 45.890625 -16.085938 45.890625 -14.015625 C 45.890625 -13.578125 45.78125 -12.757812 45.5625 -11.5625 C 44.6875 -7.894531 42.253906 -4.992188 38.265625 -2.859375 C 34.285156 -0.734375 29.039062 0.328125 22.53125 0.328125 C 15.21875 0.328125 9.414062 -0.65625 5.125 -2.625 C 0.832031 -4.59375 -1.3125 -7.296875 -1.3125 -10.734375 C -1.3125 -13.085938 -0.601562 -14.863281 0.8125 -16.0625 C 2.238281 -17.257812 4.125 -17.859375 6.46875 -17.859375 C 9.207031 -17.859375 11.546875 -17.007812 13.484375 -15.3125 C 15.421875 -13.625 16.390625 -11.46875 16.390625 -8.84375 C 16.390625 -8.132812 16.304688 -7.398438 16.140625 -6.640625 C 17.453125 -6.304688 18.710938 -6.140625 19.921875 -6.140625 C 21.335938 -6.140625 22.507812 -6.519531 23.4375 -7.28125 C 24.363281 -8.050781 24.828125 -9.117188 24.828125 -10.484375 C 24.773438 -11.742188 24.144531 -12.820312 22.9375 -13.71875 C 21.738281 -14.625 19.828125 -15.707031 17.203125 -16.96875 C 14.742188 -18.113281 12.722656 -19.191406 11.140625 -20.203125 C 9.554688 -21.210938 8.203125 -22.484375 7.078125 -24.015625 C 5.960938 -25.546875 5.40625 -27.347656 5.40625 -29.421875 C 5.40625 -33.898438 7.273438 -37.460938 11.015625 -40.109375 C 14.765625 -42.765625 20.082031 -44.09375 26.96875 -44.09375 Z M 26.96875 -44.09375 "/></g></g></g><g fill="#ffffff" fill-opacity="1"><g transform="translate(686.234973, 109.81563)"><g><path d="M 27.78125 -43.765625 C 34.71875 -43.765625 39.742188 -42.65625 42.859375 -40.4375 C 45.972656 -38.226562 47.53125 -35.40625 47.53125 -31.96875 C 47.53125 -30.925781 47.421875 -29.96875 47.203125 -29.09375 C 46.378906 -25.488281 44.097656 -22.90625 40.359375 -21.34375 C 36.617188 -19.789062 32.207031 -19.015625 27.125 -19.015625 C 24.5625 -19.015625 22.160156 -19.175781 19.921875 -19.5 C 19.859375 -16.664062 20.617188 -14.671875 22.203125 -13.515625 C 23.785156 -12.367188 26 -11.796875 28.84375 -11.796875 C 30.15625 -11.796875 31.410156 -11.945312 32.609375 -12.25 C 33.816406 -12.550781 35.347656 -13.003906 37.203125 -13.609375 C 38.734375 -14.148438 39.773438 -14.421875 40.328125 -14.421875 C 40.921875 -14.421875 41.21875 -14.066406 41.21875 -13.359375 C 41.269531 -11.441406 40.554688 -9.429688 39.078125 -7.328125 C 37.609375 -5.222656 35.425781 -3.429688 32.53125 -1.953125 C 29.632812 -0.484375 26.140625 0.25 22.046875 0.25 C 15.984375 0.25 11.007812 -1.28125 7.125 -4.34375 C 3.25 -7.40625 1.3125 -11.859375 1.3125 -17.703125 C 1.3125 -19.335938 1.53125 -21.25 1.96875 -23.4375 C 3.332031 -30.15625 6.320312 -35.222656 10.9375 -38.640625 C 15.550781 -42.054688 21.164062 -43.765625 27.78125 -43.765625 Z M 20.484375 -24.421875 C 20.703125 -24.367188 21.003906 -24.34375 21.390625 -24.34375 C 23.679688 -24.34375 25.425781 -25.40625 26.625 -27.53125 C 27.832031 -29.664062 28.410156 -32.046875 28.359375 -34.671875 C 28.304688 -36.191406 27.867188 -36.953125 27.046875 -36.953125 C 26.441406 -36.953125 25.726562 -36.472656 24.90625 -35.515625 C 24.09375 -34.566406 23.289062 -33.132812 22.5 -31.21875 C 21.707031 -29.3125 21.035156 -27.046875 20.484375 -24.421875 Z M 20.484375 -24.421875 "/></g></g></g><g fill="#ffffff" fill-opacity="1"><g transform="translate(730.081339, 109.81563)"><g><path d="M 26.140625 -60.5625 C 29.304688 -60.5625 31.640625 -59.957031 33.140625 -58.75 C 34.648438 -57.550781 35.40625 -55.914062 35.40625 -53.84375 C 35.40625 -52.644531 35.210938 -51.46875 34.828125 -50.3125 L 21.96875 -8.515625 C 21.800781 -7.867188 21.71875 -7.296875 21.71875 -6.796875 C 21.71875 -6.085938 21.851562 -5.523438 22.125 -5.109375 C 22.394531 -4.703125 22.78125 -4.3125 23.28125 -3.9375 C 23.65625 -3.550781 23.925781 -3.234375 24.09375 -2.984375 C 24.257812 -2.742188 24.285156 -2.429688 24.171875 -2.046875 C 23.898438 -1.335938 23.351562 -0.816406 22.53125 -0.484375 C 21.71875 -0.160156 20.460938 0 18.765625 0 L 0.078125 0 C -1.335938 0 -2.375 -0.226562 -3.03125 -0.6875 C -3.6875 -1.15625 -3.90625 -1.773438 -3.6875 -2.546875 C -3.46875 -3.203125 -2.894531 -3.773438 -1.96875 -4.265625 C -1.144531 -4.703125 -0.460938 -5.21875 0.078125 -5.8125 C 0.628906 -6.414062 1.09375 -7.375 1.46875 -8.6875 L 13.9375 -49.578125 C 14.09375 -50.066406 14.171875 -50.476562 14.171875 -50.8125 C 14.171875 -51.414062 14.019531 -51.90625 13.71875 -52.28125 C 13.425781 -52.664062 13.03125 -53.050781 12.53125 -53.4375 C 11.988281 -53.875 11.59375 -54.253906 11.34375 -54.578125 C 11.101562 -54.910156 11.066406 -55.347656 11.234375 -55.890625 C 11.554688 -57.148438 13.273438 -58.242188 16.390625 -59.171875 C 19.503906 -60.097656 22.753906 -60.5625 26.140625 -60.5625 Z M 26.140625 -60.5625 "/></g></g></g><g fill="#ffffff" fill-opacity="1"><g transform="translate(758.028225, 109.81563)"><g><path d="M 33.4375 -60.5625 C 39.28125 -60.5625 43.660156 -59.671875 46.578125 -57.890625 C 49.503906 -56.117188 50.96875 -53.953125 50.96875 -51.390625 C 50.96875 -49.304688 50.109375 -47.703125 48.390625 -46.578125 C 46.671875 -45.460938 44.414062 -44.90625 41.625 -44.90625 C 39.0625 -44.90625 37.066406 -45.535156 35.640625 -46.796875 C 34.222656 -48.054688 33.515625 -49.613281 33.515625 -51.46875 C 33.515625 -52.613281 33.867188 -53.816406 34.578125 -55.078125 C 32.941406 -55.078125 31.578125 -54.679688 30.484375 -53.890625 C 29.390625 -53.097656 28.546875 -51.742188 27.953125 -49.828125 C 27.617188 -48.628906 27.453125 -47.507812 27.453125 -46.46875 C 27.453125 -45.15625 27.679688 -44.128906 28.140625 -43.390625 C 28.609375 -42.648438 29.28125 -42.28125 30.15625 -42.28125 L 35 -42.28125 C 37.832031 -42.28125 39.25 -41.410156 39.25 -39.671875 C 39.25 -39.453125 39.195312 -39.125 39.09375 -38.6875 C 38.757812 -37.476562 38.085938 -36.570312 37.078125 -35.96875 C 36.066406 -35.375 34.550781 -35.078125 32.53125 -35.078125 L 30.078125 -35.078125 L 21.96875 -8.515625 C 21.800781 -7.867188 21.71875 -7.296875 21.71875 -6.796875 C 21.71875 -6.085938 21.851562 -5.523438 22.125 -5.109375 C 22.394531 -4.703125 22.78125 -4.3125 23.28125 -3.9375 C 23.65625 -3.550781 23.925781 -3.234375 24.09375 -2.984375 C 24.257812 -2.742188 24.285156 -2.429688 24.171875 -2.046875 C 23.898438 -1.335938 23.351562 -0.816406 22.53125 -0.484375 C 21.71875 -0.160156 20.460938 0 18.765625 0 L 0.078125 0 C -1.335938 0 -2.375 -0.226562 -3.03125 -0.6875 C -3.6875 -1.15625 -3.90625 -1.773438 -3.6875 -2.546875 C -3.46875 -3.203125 -2.894531 -3.773438 -1.96875 -4.265625 C -1.144531 -4.703125 -0.460938 -5.21875 0.078125 -5.8125 C 0.628906 -6.414062 1.09375 -7.375 1.46875 -8.6875 L 7.875 -29.671875 C 8.144531 -30.484375 8.28125 -31.328125 8.28125 -32.203125 C 8.28125 -33.296875 8.046875 -34.15625 7.578125 -34.78125 C 7.117188 -35.414062 6.421875 -36.113281 5.484375 -36.875 C 4.890625 -37.363281 4.441406 -37.785156 4.140625 -38.140625 C 3.835938 -38.503906 3.6875 -38.929688 3.6875 -39.421875 C 3.632812 -40.453125 4.003906 -41.1875 4.796875 -41.625 C 5.585938 -42.0625 7.101562 -42.28125 9.34375 -42.28125 L 11.390625 -42.28125 C 11.003906 -43.65625 10.8125 -45.023438 10.8125 -46.390625 C 10.8125 -47.753906 11.0625 -49.171875 11.5625 -50.640625 C 12.59375 -53.429688 14.816406 -55.78125 18.234375 -57.6875 C 21.648438 -59.601562 26.71875 -60.5625 33.4375 -60.5625 Z M 33.4375 -60.5625 "/></g></g></g><g fill="#ffffff" fill-opacity="1"><g transform="translate(307.797951, 246.658169)"><g><path d="M 31.3125 -24.59375 C 32.007812 -24.59375 32.617188 -24.320312 33.140625 -23.78125 C 33.660156 -23.25 33.921875 -22.570312 33.921875 -21.75 C 33.921875 -21.53125 33.90625 -21.335938 33.875 -21.171875 C 33.84375 -21.003906 33.796875 -20.84375 33.734375 -20.6875 L 26.703125 -1.75 C 26.492188 -1.132812 26.113281 -0.664062 25.5625 -0.34375 C 25.007812 -0.0195312 24.425781 0.09375 23.8125 0 C 22.769531 -0.0625 21.988281 -0.644531 21.46875 -1.75 L 16.921875 -14.84375 L 18.109375 -14.796875 L 13.84375 -1.75 C 13.320312 -0.644531 12.539062 -0.0625 11.5 0 C 10.914062 0.09375 10.335938 -0.0195312 9.765625 -0.34375 C 9.203125 -0.664062 8.8125 -1.132812 8.59375 -1.75 L 1.5625 -20.6875 C 1.4375 -21.019531 1.375 -21.375 1.375 -21.75 C 1.375 -22.476562 1.617188 -23.132812 2.109375 -23.71875 C 2.597656 -24.300781 3.273438 -24.59375 4.140625 -24.59375 C 4.722656 -24.59375 5.242188 -24.453125 5.703125 -24.171875 C 6.160156 -23.898438 6.484375 -23.457031 6.671875 -22.84375 L 12.234375 -7.765625 L 11.078125 -7.859375 L 15.265625 -19.21875 C 15.753906 -20.351562 16.597656 -20.921875 17.796875 -20.921875 C 18.460938 -20.921875 18.972656 -20.773438 19.328125 -20.484375 C 19.679688 -20.191406 19.96875 -19.769531 20.1875 -19.21875 L 24.359375 -7.859375 L 22.984375 -7.671875 L 28.640625 -22.84375 C 29.003906 -24.007812 29.894531 -24.59375 31.3125 -24.59375 Z M 31.3125 -24.59375 "/></g></g></g><g fill="#ffffff" fill-opacity="1"><g transform="translate(342.186195, 246.658169)"><g><path d="M 15.90625 -25.046875 C 18.113281 -25.046875 19.789062 -24.570312 20.9375 -23.625 C 22.082031 -22.675781 22.867188 -21.410156 23.296875 -19.828125 C 23.734375 -18.253906 23.953125 -16.503906 23.953125 -14.578125 L 23.953125 -2.796875 C 23.953125 -2.003906 23.691406 -1.335938 23.171875 -0.796875 C 22.648438 -0.265625 21.988281 0 21.1875 0 C 20.394531 0 19.738281 -0.265625 19.21875 -0.796875 C 18.695312 -1.335938 18.4375 -2.003906 18.4375 -2.796875 L 18.4375 -14.578125 C 18.4375 -15.585938 18.3125 -16.5 18.0625 -17.3125 C 17.820312 -18.125 17.378906 -18.773438 16.734375 -19.265625 C 16.085938 -19.753906 15.164062 -20 13.96875 -20 C 12.8125 -20 11.816406 -19.753906 10.984375 -19.265625 C 10.160156 -18.773438 9.539062 -18.125 9.125 -17.3125 C 8.707031 -16.5 8.5 -15.585938 8.5 -14.578125 L 8.5 -2.796875 C 8.5 -2.003906 8.238281 -1.335938 7.71875 -0.796875 C 7.195312 -0.265625 6.539062 0 5.75 0 C 4.945312 0 4.285156 -0.265625 3.765625 -0.796875 C 3.242188 -1.335938 2.984375 -2.003906 2.984375 -2.796875 L 2.984375 -31.21875 C 2.984375 -32.007812 3.242188 -32.671875 3.765625 -33.203125 C 4.285156 -33.742188 4.945312 -34.015625 5.75 -34.015625 C 6.539062 -34.015625 7.195312 -33.742188 7.71875 -33.203125 C 8.238281 -32.671875 8.5 -32.007812 8.5 -31.21875 L 8.5 -19.8125 L 7.8125 -19.953125 C 8.09375 -20.472656 8.476562 -21.03125 8.96875 -21.625 C 9.457031 -22.226562 10.050781 -22.789062 10.75 -23.3125 C 11.457031 -23.832031 12.238281 -24.25 13.09375 -24.5625 C 13.957031 -24.882812 14.894531 -25.046875 15.90625 -25.046875 Z M 15.90625 -25.046875 "/></g></g></g><g fill="#ffffff" fill-opacity="1"><g transform="translate(368.207227, 246.658169)"><g><path d="M 23.125 -25.046875 C 23.914062 -25.046875 24.570312 -24.785156 25.09375 -24.265625 C 25.613281 -23.742188 25.875 -23.070312 25.875 -22.25 L 25.875 -2.796875 C 25.875 -2.003906 25.613281 -1.335938 25.09375 -0.796875 C 24.570312 -0.265625 23.914062 0 23.125 0 C 22.320312 0 21.660156 -0.265625 21.140625 -0.796875 C 20.617188 -1.335938 20.359375 -2.003906 20.359375 -2.796875 L 20.359375 -5.0625 L 21.375 -4.640625 C 21.375 -4.242188 21.160156 -3.757812 20.734375 -3.1875 C 20.304688 -2.625 19.722656 -2.066406 18.984375 -1.515625 C 18.242188 -0.960938 17.375 -0.492188 16.375 -0.109375 C 15.382812 0.265625 14.304688 0.453125 13.140625 0.453125 C 11.023438 0.453125 9.109375 -0.0859375 7.390625 -1.171875 C 5.679688 -2.253906 4.328125 -3.753906 3.328125 -5.671875 C 2.335938 -7.585938 1.84375 -9.789062 1.84375 -12.28125 C 1.84375 -14.789062 2.335938 -17.003906 3.328125 -18.921875 C 4.328125 -20.835938 5.671875 -22.335938 7.359375 -23.421875 C 9.046875 -24.503906 10.914062 -25.046875 12.96875 -25.046875 C 14.28125 -25.046875 15.488281 -24.847656 16.59375 -24.453125 C 17.695312 -24.054688 18.65625 -23.550781 19.46875 -22.9375 C 20.28125 -22.320312 20.90625 -21.703125 21.34375 -21.078125 C 21.789062 -20.453125 22.015625 -19.921875 22.015625 -19.484375 L 20.359375 -18.890625 L 20.359375 -22.25 C 20.359375 -23.039062 20.617188 -23.703125 21.140625 -24.234375 C 21.660156 -24.773438 22.320312 -25.046875 23.125 -25.046875 Z M 13.84375 -4.59375 C 15.1875 -4.59375 16.363281 -4.929688 17.375 -5.609375 C 18.382812 -6.285156 19.171875 -7.203125 19.734375 -8.359375 C 20.304688 -9.523438 20.59375 -10.832031 20.59375 -12.28125 C 20.59375 -13.75 20.304688 -15.0625 19.734375 -16.21875 C 19.171875 -17.382812 18.382812 -18.304688 17.375 -18.984375 C 16.363281 -19.660156 15.1875 -20 13.84375 -20 C 12.519531 -20 11.351562 -19.660156 10.34375 -18.984375 C 9.332031 -18.304688 8.539062 -17.382812 7.96875 -16.21875 C 7.40625 -15.0625 7.125 -13.75 7.125 -12.28125 C 7.125 -10.832031 7.40625 -9.523438 7.96875 -8.359375 C 8.539062 -7.203125 9.332031 -6.285156 10.34375 -5.609375 C 11.351562 -4.929688 12.519531 -4.59375 13.84375 -4.59375 Z M 13.84375 -4.59375 "/></g></g></g><g fill="#ffffff" fill-opacity="1"><g transform="translate(396.159162, 246.658169)"><g><path d="M 3.265625 -24.140625 L 14.15625 -24.140625 C 14.894531 -24.140625 15.507812 -23.890625 16 -23.390625 C 16.488281 -22.898438 16.734375 -22.289062 16.734375 -21.5625 C 16.734375 -20.851562 16.488281 -20.257812 16 -19.78125 C 15.507812 -19.3125 14.894531 -19.078125 14.15625 -19.078125 L 3.265625 -19.078125 C 2.523438 -19.078125 1.910156 -19.320312 1.421875 -19.8125 C 0.929688 -20.300781 0.6875 -20.914062 0.6875 -21.65625 C 0.6875 -22.351562 0.929688 -22.941406 1.421875 -23.421875 C 1.910156 -23.898438 2.523438 -24.140625 3.265625 -24.140625 Z M 8.1875 -29.875 C 8.976562 -29.875 9.625 -29.601562 10.125 -29.0625 C 10.632812 -28.53125 10.890625 -27.867188 10.890625 -27.078125 L 10.890625 -6.625 C 10.890625 -6.1875 10.972656 -5.832031 11.140625 -5.5625 C 11.316406 -5.289062 11.550781 -5.09375 11.84375 -4.96875 C 12.132812 -4.84375 12.445312 -4.78125 12.78125 -4.78125 C 13.144531 -4.78125 13.476562 -4.847656 13.78125 -4.984375 C 14.09375 -5.117188 14.445312 -5.1875 14.84375 -5.1875 C 15.269531 -5.1875 15.660156 -4.988281 16.015625 -4.59375 C 16.367188 -4.195312 16.546875 -3.644531 16.546875 -2.9375 C 16.546875 -2.082031 16.078125 -1.378906 15.140625 -0.828125 C 14.210938 -0.273438 13.210938 0 12.140625 0 C 11.492188 0 10.78125 -0.0507812 10 -0.15625 C 9.21875 -0.269531 8.476562 -0.53125 7.78125 -0.9375 C 7.09375 -1.351562 6.519531 -1.988281 6.0625 -2.84375 C 5.601562 -3.707031 5.375 -4.890625 5.375 -6.390625 L 5.375 -27.078125 C 5.375 -27.867188 5.640625 -28.53125 6.171875 -29.0625 C 6.710938 -29.601562 7.382812 -29.875 8.1875 -29.875 Z M 8.1875 -29.875 "/></g></g></g><g fill="#ffffff" fill-opacity="1"><g transform="translate(414.042847, 246.658169)"><g><path d="M 9.96875 -27.53125 C 9.96875 -26.519531 9.6875 -25.5 9.125 -24.46875 C 8.5625 -23.445312 7.828125 -22.59375 6.921875 -21.90625 C 6.015625 -21.21875 5.054688 -20.875 4.046875 -20.875 C 3.710938 -20.875 3.351562 -21.007812 2.96875 -21.28125 C 2.582031 -21.5625 2.390625 -22.035156 2.390625 -22.703125 C 2.390625 -23.410156 2.609375 -23.832031 3.046875 -23.96875 C 3.492188 -24.101562 3.875 -24.25 4.1875 -24.40625 C 4.582031 -24.625 4.894531 -24.878906 5.125 -25.171875 C 5.351562 -25.460938 5.46875 -25.820312 5.46875 -26.25 C 5.46875 -26.582031 5.304688 -26.878906 4.984375 -27.140625 C 4.660156 -27.398438 4.238281 -27.53125 3.71875 -27.53125 C 3.539062 -27.53125 3.328125 -27.503906 3.078125 -27.453125 C 2.835938 -27.410156 2.625 -27.332031 2.4375 -27.21875 C 2.132812 -27.363281 1.863281 -27.550781 1.625 -27.78125 C 1.394531 -28.019531 1.28125 -28.398438 1.28125 -28.921875 C 1.28125 -29.867188 1.71875 -30.6875 2.59375 -31.375 C 3.46875 -32.0625 4.488281 -32.40625 5.65625 -32.40625 C 6.96875 -32.40625 8.015625 -31.957031 8.796875 -31.0625 C 9.578125 -30.175781 9.96875 -29 9.96875 -27.53125 Z M 9.96875 -27.53125 "/></g></g></g><g fill="#ffffff" fill-opacity="1"><g transform="translate(425.76606, 246.658169)"><g><path d="M 1.5625 -3.8125 C 1.257812 -4.238281 1.117188 -4.789062 1.140625 -5.46875 C 1.171875 -6.144531 1.570312 -6.726562 2.34375 -7.21875 C 2.832031 -7.519531 3.351562 -7.644531 3.90625 -7.59375 C 4.457031 -7.550781 4.992188 -7.269531 5.515625 -6.75 C 6.398438 -5.863281 7.332031 -5.175781 8.3125 -4.6875 C 9.300781 -4.195312 10.53125 -3.953125 12 -3.953125 C 12.457031 -3.984375 12.960938 -4.050781 13.515625 -4.15625 C 14.066406 -4.269531 14.546875 -4.515625 14.953125 -4.890625 C 15.367188 -5.273438 15.578125 -5.867188 15.578125 -6.671875 C 15.578125 -7.335938 15.347656 -7.867188 14.890625 -8.265625 C 14.429688 -8.671875 13.828125 -9.007812 13.078125 -9.28125 C 12.328125 -9.5625 11.492188 -9.820312 10.578125 -10.0625 C 9.617188 -10.34375 8.640625 -10.648438 7.640625 -10.984375 C 6.648438 -11.328125 5.738281 -11.765625 4.90625 -12.296875 C 4.082031 -12.828125 3.410156 -13.535156 2.890625 -14.421875 C 2.367188 -15.316406 2.109375 -16.441406 2.109375 -17.796875 C 2.109375 -19.328125 2.535156 -20.628906 3.390625 -21.703125 C 4.253906 -22.773438 5.367188 -23.597656 6.734375 -24.171875 C 8.097656 -24.753906 9.53125 -25.046875 11.03125 -25.046875 C 11.976562 -25.046875 12.972656 -24.929688 14.015625 -24.703125 C 15.054688 -24.472656 16.050781 -24.101562 17 -23.59375 C 17.957031 -23.09375 18.757812 -22.429688 19.40625 -21.609375 C 19.738281 -21.148438 19.9375 -20.597656 20 -19.953125 C 20.0625 -19.304688 19.769531 -18.722656 19.125 -18.203125 C 18.664062 -17.835938 18.128906 -17.675781 17.515625 -17.71875 C 16.898438 -17.769531 16.394531 -17.976562 16 -18.34375 C 15.476562 -19.019531 14.78125 -19.554688 13.90625 -19.953125 C 13.03125 -20.347656 12.023438 -20.546875 10.890625 -20.546875 C 10.429688 -20.546875 9.929688 -20.488281 9.390625 -20.375 C 8.859375 -20.269531 8.394531 -20.039062 8 -19.6875 C 7.601562 -19.34375 7.40625 -18.785156 7.40625 -18.015625 C 7.40625 -17.316406 7.632812 -16.757812 8.09375 -16.34375 C 8.550781 -15.925781 9.171875 -15.585938 9.953125 -15.328125 C 10.734375 -15.066406 11.566406 -14.816406 12.453125 -14.578125 C 13.378906 -14.328125 14.316406 -14.03125 15.265625 -13.6875 C 16.210938 -13.351562 17.082031 -12.910156 17.875 -12.359375 C 18.675781 -11.804688 19.320312 -11.09375 19.8125 -10.21875 C 20.300781 -9.351562 20.546875 -8.242188 20.546875 -6.890625 C 20.546875 -5.328125 20.085938 -3.992188 19.171875 -2.890625 C 18.253906 -1.785156 17.101562 -0.953125 15.71875 -0.390625 C 14.34375 0.171875 12.9375 0.453125 11.5 0.453125 C 9.6875 0.453125 7.875 0.140625 6.0625 -0.484375 C 4.257812 -1.109375 2.757812 -2.21875 1.5625 -3.8125 Z M 1.5625 -3.8125 "/></g></g></g><g fill="#ffffff" fill-opacity="1"><g transform="translate(447.005827, 246.658169)"><g/></g></g><g fill="#ffffff" fill-opacity="1"><g transform="translate(458.958908, 246.658169)"><g><path d="M 21.234375 -24.59375 C 22.035156 -24.59375 22.695312 -24.320312 23.21875 -23.78125 C 23.738281 -23.25 24 -22.585938 24 -21.796875 L 24 -2.25 C 24 0.570312 23.46875 2.816406 22.40625 4.484375 C 21.351562 6.148438 19.9375 7.347656 18.15625 8.078125 C 16.375 8.816406 14.382812 9.1875 12.1875 9.1875 C 11.195312 9.1875 10.148438 9.109375 9.046875 8.953125 C 7.953125 8.804688 7.050781 8.582031 6.34375 8.28125 C 5.425781 7.875 4.789062 7.375 4.4375 6.78125 C 4.082031 6.1875 4.015625 5.550781 4.234375 4.875 C 4.503906 3.988281 4.945312 3.382812 5.5625 3.0625 C 6.175781 2.738281 6.820312 2.695312 7.5 2.9375 C 7.988281 3.09375 8.628906 3.332031 9.421875 3.65625 C 10.222656 3.976562 11.144531 4.140625 12.1875 4.140625 C 13.59375 4.140625 14.757812 3.945312 15.6875 3.5625 C 16.625 3.175781 17.332031 2.53125 17.8125 1.625 C 18.289062 0.726562 18.53125 -0.5 18.53125 -2.0625 L 18.53125 -5.15625 L 19.484375 -4.046875 C 18.960938 -3.035156 18.3125 -2.195312 17.53125 -1.53125 C 16.75 -0.875 15.820312 -0.378906 14.75 -0.046875 C 13.675781 0.285156 12.453125 0.453125 11.078125 0.453125 C 9.453125 0.453125 8.035156 0.078125 6.828125 -0.671875 C 5.617188 -1.421875 4.675781 -2.460938 4 -3.796875 C 3.320312 -5.128906 2.984375 -6.648438 2.984375 -8.359375 L 2.984375 -21.796875 C 2.984375 -22.585938 3.242188 -23.25 3.765625 -23.78125 C 4.285156 -24.320312 4.945312 -24.59375 5.75 -24.59375 C 6.539062 -24.59375 7.195312 -24.320312 7.71875 -23.78125 C 8.238281 -23.25 8.5 -22.585938 8.5 -21.796875 L 8.5 -10.015625 C 8.5 -8.023438 8.9375 -6.625 9.8125 -5.8125 C 10.6875 -5 11.90625 -4.59375 13.46875 -4.59375 C 14.539062 -4.59375 15.441406 -4.800781 16.171875 -5.21875 C 16.910156 -5.632812 17.476562 -6.25 17.875 -7.0625 C 18.28125 -7.875 18.484375 -8.859375 18.484375 -10.015625 L 18.484375 -21.796875 C 18.484375 -22.585938 18.742188 -23.25 19.265625 -23.78125 C 19.785156 -24.320312 20.441406 -24.59375 21.234375 -24.59375 Z M 21.234375 -24.59375 "/></g></g></g><g fill="#ffffff" fill-opacity="1"><g transform="translate(485.025908, 246.658169)"><g><path d="M 26.84375 -12.28125 C 26.84375 -9.757812 26.28125 -7.539062 25.15625 -5.625 C 24.039062 -3.71875 22.539062 -2.226562 20.65625 -1.15625 C 18.769531 -0.0820312 16.664062 0.453125 14.34375 0.453125 C 12.007812 0.453125 9.898438 -0.0820312 8.015625 -1.15625 C 6.128906 -2.226562 4.628906 -3.71875 3.515625 -5.625 C 2.398438 -7.539062 1.84375 -9.757812 1.84375 -12.28125 C 1.84375 -14.789062 2.398438 -17.003906 3.515625 -18.921875 C 4.628906 -20.835938 6.128906 -22.335938 8.015625 -23.421875 C 9.898438 -24.503906 12.007812 -25.046875 14.34375 -25.046875 C 16.664062 -25.046875 18.769531 -24.503906 20.65625 -23.421875 C 22.539062 -22.335938 24.039062 -20.835938 25.15625 -18.921875 C 26.28125 -17.003906 26.84375 -14.789062 26.84375 -12.28125 Z M 21.328125 -12.28125 C 21.328125 -13.84375 21.007812 -15.195312 20.375 -16.34375 C 19.75 -17.488281 18.90625 -18.382812 17.84375 -19.03125 C 16.789062 -19.675781 15.625 -20 14.34375 -20 C 13.050781 -20 11.875 -19.675781 10.8125 -19.03125 C 9.757812 -18.382812 8.921875 -17.488281 8.296875 -16.34375 C 7.671875 -15.195312 7.359375 -13.84375 7.359375 -12.28125 C 7.359375 -10.738281 7.671875 -9.394531 8.296875 -8.25 C 8.921875 -7.101562 9.757812 -6.207031 10.8125 -5.5625 C 11.875 -4.914062 13.050781 -4.59375 14.34375 -4.59375 C 15.625 -4.59375 16.789062 -4.914062 17.84375 -5.5625 C 18.90625 -6.207031 19.75 -7.101562 20.375 -8.25 C 21.007812 -9.394531 21.328125 -10.738281 21.328125 -12.28125 Z M 21.328125 -12.28125 "/></g></g></g><g fill="#ffffff" fill-opacity="1"><g transform="translate(512.793941, 246.658169)"><g><path d="M 21.234375 -24.59375 C 22.035156 -24.59375 22.695312 -24.320312 23.21875 -23.78125 C 23.738281 -23.25 24 -22.585938 24 -21.796875 L 24 -10.109375 C 24 -6.859375 23.09375 -4.285156 21.28125 -2.390625 C 19.476562 -0.492188 16.875 0.453125 13.46875 0.453125 C 10.0625 0.453125 7.460938 -0.492188 5.671875 -2.390625 C 3.878906 -4.285156 2.984375 -6.859375 2.984375 -10.109375 L 2.984375 -21.796875 C 2.984375 -22.585938 3.242188 -23.25 3.765625 -23.78125 C 4.285156 -24.320312 4.945312 -24.59375 5.75 -24.59375 C 6.539062 -24.59375 7.195312 -24.320312 7.71875 -23.78125 C 8.238281 -23.25 8.5 -22.585938 8.5 -21.796875 L 8.5 -10.109375 C 8.5 -8.242188 8.910156 -6.859375 9.734375 -5.953125 C 10.566406 -5.046875 11.8125 -4.59375 13.46875 -4.59375 C 15.15625 -4.59375 16.410156 -5.046875 17.234375 -5.953125 C 18.066406 -6.859375 18.484375 -8.242188 18.484375 -10.109375 L 18.484375 -21.796875 C 18.484375 -22.585938 18.742188 -23.25 19.265625 -23.78125 C 19.785156 -24.320312 20.441406 -24.59375 21.234375 -24.59375 Z M 21.234375 -24.59375 "/></g></g></g><g fill="#ffffff" fill-opacity="1"><g transform="translate(538.860953, 246.658169)"><g><path d="M 5.75 0 C 4.945312 0 4.285156 -0.265625 3.765625 -0.796875 C 3.242188 -1.335938 2.984375 -2.003906 2.984375 -2.796875 L 2.984375 -21.796875 C 2.984375 -22.585938 3.242188 -23.25 3.765625 -23.78125 C 4.285156 -24.320312 4.945312 -24.59375 5.75 -24.59375 C 6.539062 -24.59375 7.195312 -24.320312 7.71875 -23.78125 C 8.238281 -23.25 8.5 -22.585938 8.5 -21.796875 L 8.5 -17.46875 L 8.1875 -20.546875 C 8.519531 -21.285156 8.953125 -21.9375 9.484375 -22.5 C 10.023438 -23.070312 10.628906 -23.546875 11.296875 -23.921875 C 11.972656 -24.304688 12.695312 -24.585938 13.46875 -24.765625 C 14.238281 -24.953125 15.003906 -25.046875 15.765625 -25.046875 C 16.679688 -25.046875 17.453125 -24.785156 18.078125 -24.265625 C 18.710938 -23.742188 19.03125 -23.132812 19.03125 -22.4375 C 19.03125 -21.425781 18.769531 -20.695312 18.25 -20.25 C 17.726562 -19.800781 17.160156 -19.578125 16.546875 -19.578125 C 15.960938 -19.578125 15.429688 -19.679688 14.953125 -19.890625 C 14.484375 -20.109375 13.941406 -20.21875 13.328125 -20.21875 C 12.773438 -20.21875 12.210938 -20.085938 11.640625 -19.828125 C 11.078125 -19.566406 10.554688 -19.160156 10.078125 -18.609375 C 9.609375 -18.066406 9.226562 -17.390625 8.9375 -16.578125 C 8.644531 -15.765625 8.5 -14.804688 8.5 -13.703125 L 8.5 -2.796875 C 8.5 -2.003906 8.238281 -1.335938 7.71875 -0.796875 C 7.195312 -0.265625 6.539062 0 5.75 0 Z M 5.75 0 "/></g></g></g><g fill="#ffffff" fill-opacity="1"><g transform="translate(557.893991, 246.658169)"><g/></g></g><g fill="#ffffff" fill-opacity="1"><g transform="translate(569.847073, 246.658169)"><g><path d="M 16.140625 -25.046875 C 18.398438 -25.046875 20.117188 -24.570312 21.296875 -23.625 C 22.484375 -22.675781 23.296875 -21.410156 23.734375 -19.828125 C 24.179688 -18.253906 24.40625 -16.503906 24.40625 -14.578125 L 24.40625 -2.796875 C 24.40625 -2.003906 24.144531 -1.335938 23.625 -0.796875 C 23.101562 -0.265625 22.445312 0 21.65625 0 C 20.851562 0 20.191406 -0.265625 19.671875 -0.796875 C 19.148438 -1.335938 18.890625 -2.003906 18.890625 -2.796875 L 18.890625 -14.578125 C 18.890625 -15.585938 18.757812 -16.5 18.5 -17.3125 C 18.238281 -18.125 17.769531 -18.773438 17.09375 -19.265625 C 16.425781 -19.753906 15.460938 -20 14.203125 -20 C 12.972656 -20 11.9375 -19.753906 11.09375 -19.265625 C 10.257812 -18.773438 9.617188 -18.125 9.171875 -17.3125 C 8.722656 -16.5 8.5 -15.585938 8.5 -14.578125 L 8.5 -2.796875 C 8.5 -2.003906 8.238281 -1.335938 7.71875 -0.796875 C 7.195312 -0.265625 6.539062 0 5.75 0 C 4.945312 0 4.285156 -0.265625 3.765625 -0.796875 C 3.242188 -1.335938 2.984375 -2.003906 2.984375 -2.796875 L 2.984375 -21.796875 C 2.984375 -22.585938 3.242188 -23.25 3.765625 -23.78125 C 4.285156 -24.320312 4.945312 -24.59375 5.75 -24.59375 C 6.539062 -24.59375 7.195312 -24.320312 7.71875 -23.78125 C 8.238281 -23.25 8.5 -22.585938 8.5 -21.796875 L 8.5 -19.8125 L 7.8125 -19.953125 C 8.09375 -20.472656 8.492188 -21.03125 9.015625 -21.625 C 9.535156 -22.226562 10.144531 -22.789062 10.84375 -23.3125 C 11.550781 -23.832031 12.347656 -24.25 13.234375 -24.5625 C 14.128906 -24.882812 15.097656 -25.046875 16.140625 -25.046875 Z M 16.140625 -25.046875 "/></g></g></g><g fill="#ffffff" fill-opacity="1"><g transform="translate(596.327839, 246.658169)"><g><path d="M 23.125 -25.046875 C 23.914062 -25.046875 24.570312 -24.785156 25.09375 -24.265625 C 25.613281 -23.742188 25.875 -23.070312 25.875 -22.25 L 25.875 -2.796875 C 25.875 -2.003906 25.613281 -1.335938 25.09375 -0.796875 C 24.570312 -0.265625 23.914062 0 23.125 0 C 22.320312 0 21.660156 -0.265625 21.140625 -0.796875 C 20.617188 -1.335938 20.359375 -2.003906 20.359375 -2.796875 L 20.359375 -5.0625 L 21.375 -4.640625 C 21.375 -4.242188 21.160156 -3.757812 20.734375 -3.1875 C 20.304688 -2.625 19.722656 -2.066406 18.984375 -1.515625 C 18.242188 -0.960938 17.375 -0.492188 16.375 -0.109375 C 15.382812 0.265625 14.304688 0.453125 13.140625 0.453125 C 11.023438 0.453125 9.109375 -0.0859375 7.390625 -1.171875 C 5.679688 -2.253906 4.328125 -3.753906 3.328125 -5.671875 C 2.335938 -7.585938 1.84375 -9.789062 1.84375 -12.28125 C 1.84375 -14.789062 2.335938 -17.003906 3.328125 -18.921875 C 4.328125 -20.835938 5.671875 -22.335938 7.359375 -23.421875 C 9.046875 -24.503906 10.914062 -25.046875 12.96875 -25.046875 C 14.28125 -25.046875 15.488281 -24.847656 16.59375 -24.453125 C 17.695312 -24.054688 18.65625 -23.550781 19.46875 -22.9375 C 20.28125 -22.320312 20.90625 -21.703125 21.34375 -21.078125 C 21.789062 -20.453125 22.015625 -19.921875 22.015625 -19.484375 L 20.359375 -18.890625 L 20.359375 -22.25 C 20.359375 -23.039062 20.617188 -23.703125 21.140625 -24.234375 C 21.660156 -24.773438 22.320312 -25.046875 23.125 -25.046875 Z M 13.84375 -4.59375 C 15.1875 -4.59375 16.363281 -4.929688 17.375 -5.609375 C 18.382812 -6.285156 19.171875 -7.203125 19.734375 -8.359375 C 20.304688 -9.523438 20.59375 -10.832031 20.59375 -12.28125 C 20.59375 -13.75 20.304688 -15.0625 19.734375 -16.21875 C 19.171875 -17.382812 18.382812 -18.304688 17.375 -18.984375 C 16.363281 -19.660156 15.1875 -20 13.84375 -20 C 12.519531 -20 11.351562 -19.660156 10.34375 -18.984375 C 9.332031 -18.304688 8.539062 -17.382812 7.96875 -16.21875 C 7.40625 -15.0625 7.125 -13.75 7.125 -12.28125 C 7.125 -10.832031 7.40625 -9.523438 7.96875 -8.359375 C 8.539062 -7.203125 9.332031 -6.285156 10.34375 -5.609375 C 11.351562 -4.929688 12.519531 -4.59375 13.84375 -4.59375 Z M 13.84375 -4.59375 "/></g></g></g><g fill="#ffffff" fill-opacity="1"><g transform="translate(624.27978, 246.658169)"><g><path d="M 15.90625 -25.046875 C 18.351562 -25.046875 20.160156 -24.457031 21.328125 -23.28125 C 22.492188 -22.101562 23.257812 -20.578125 23.625 -18.703125 L 22.84375 -19.125 L 23.21875 -19.859375 C 23.582031 -20.566406 24.144531 -21.328125 24.90625 -22.140625 C 25.675781 -22.953125 26.601562 -23.640625 27.6875 -24.203125 C 28.78125 -24.765625 30 -25.046875 31.34375 -25.046875 C 33.550781 -25.046875 35.226562 -24.570312 36.375 -23.625 C 37.53125 -22.675781 38.320312 -21.410156 38.75 -19.828125 C 39.175781 -18.253906 39.390625 -16.503906 39.390625 -14.578125 L 39.390625 -2.796875 C 39.390625 -2.003906 39.128906 -1.335938 38.609375 -0.796875 C 38.085938 -0.265625 37.429688 0 36.640625 0 C 35.835938 0 35.175781 -0.265625 34.65625 -0.796875 C 34.132812 -1.335938 33.875 -2.003906 33.875 -2.796875 L 33.875 -14.578125 C 33.875 -15.585938 33.75 -16.5 33.5 -17.3125 C 33.257812 -18.125 32.816406 -18.773438 32.171875 -19.265625 C 31.535156 -19.753906 30.617188 -20 29.421875 -20 C 28.253906 -20 27.253906 -19.753906 26.421875 -19.265625 C 25.597656 -18.773438 24.976562 -18.125 24.5625 -17.3125 C 24.15625 -16.5 23.953125 -15.585938 23.953125 -14.578125 L 23.953125 -2.796875 C 23.953125 -2.003906 23.691406 -1.335938 23.171875 -0.796875 C 22.648438 -0.265625 21.988281 0 21.1875 0 C 20.394531 0 19.738281 -0.265625 19.21875 -0.796875 C 18.695312 -1.335938 18.4375 -2.003906 18.4375 -2.796875 L 18.4375 -14.578125 C 18.4375 -15.585938 18.3125 -16.5 18.0625 -17.3125 C 17.820312 -18.125 17.378906 -18.773438 16.734375 -19.265625 C 16.085938 -19.753906 15.164062 -20 13.96875 -20 C 12.8125 -20 11.816406 -19.753906 10.984375 -19.265625 C 10.160156 -18.773438 9.539062 -18.125 9.125 -17.3125 C 8.707031 -16.5 8.5 -15.585938 8.5 -14.578125 L 8.5 -2.796875 C 8.5 -2.003906 8.238281 -1.335938 7.71875 -0.796875 C 7.195312 -0.265625 6.539062 0 5.75 0 C 4.945312 0 4.285156 -0.265625 3.765625 -0.796875 C 3.242188 -1.335938 2.984375 -2.003906 2.984375 -2.796875 L 2.984375 -21.796875 C 2.984375 -22.585938 3.242188 -23.25 3.765625 -23.78125 C 4.285156 -24.320312 4.945312 -24.59375 5.75 -24.59375 C 6.539062 -24.59375 7.195312 -24.320312 7.71875 -23.78125 C 8.238281 -23.25 8.5 -22.585938 8.5 -21.796875 L 8.5 -19.8125 L 7.8125 -19.953125 C 8.09375 -20.472656 8.476562 -21.03125 8.96875 -21.625 C 9.457031 -22.226562 10.050781 -22.789062 10.75 -23.3125 C 11.457031 -23.832031 12.238281 -24.25 13.09375 -24.5625 C 13.957031 -24.882812 14.894531 -25.046875 15.90625 -25.046875 Z M 15.90625 -25.046875 "/></g></g></g><g fill="#ffffff" fill-opacity="1"><g transform="translate(665.747966, 246.658169)"><g><path d="M 14.578125 0.453125 C 11.972656 0.453125 9.710938 -0.0859375 7.796875 -1.171875 C 5.878906 -2.253906 4.40625 -3.726562 3.375 -5.59375 C 2.351562 -7.46875 1.84375 -9.585938 1.84375 -11.953125 C 1.84375 -14.710938 2.398438 -17.0625 3.515625 -19 C 4.628906 -20.945312 6.09375 -22.441406 7.90625 -23.484375 C 9.71875 -24.523438 11.632812 -25.046875 13.65625 -25.046875 C 15.21875 -25.046875 16.695312 -24.722656 18.09375 -24.078125 C 19.488281 -23.441406 20.71875 -22.5625 21.78125 -21.4375 C 22.851562 -20.320312 23.703125 -19.03125 24.328125 -17.5625 C 24.960938 -16.09375 25.28125 -14.53125 25.28125 -12.875 C 25.25 -12.132812 24.957031 -11.535156 24.40625 -11.078125 C 23.851562 -10.617188 23.210938 -10.390625 22.484375 -10.390625 L 4.921875 -10.390625 L 3.546875 -14.984375 L 20.40625 -14.984375 L 19.40625 -14.0625 L 19.40625 -15.3125 C 19.34375 -16.195312 19.023438 -16.988281 18.453125 -17.6875 C 17.890625 -18.394531 17.1875 -18.957031 16.34375 -19.375 C 15.5 -19.789062 14.601562 -20 13.65625 -20 C 12.738281 -20 11.878906 -19.875 11.078125 -19.625 C 10.285156 -19.382812 9.597656 -18.972656 9.015625 -18.390625 C 8.429688 -17.804688 7.96875 -17.023438 7.625 -16.046875 C 7.289062 -15.066406 7.125 -13.820312 7.125 -12.3125 C 7.125 -10.664062 7.46875 -9.265625 8.15625 -8.109375 C 8.84375 -6.960938 9.726562 -6.085938 10.8125 -5.484375 C 11.90625 -4.890625 13.066406 -4.59375 14.296875 -4.59375 C 15.429688 -4.59375 16.332031 -4.6875 17 -4.875 C 17.675781 -5.0625 18.222656 -5.285156 18.640625 -5.546875 C 19.054688 -5.804688 19.429688 -6.023438 19.765625 -6.203125 C 20.316406 -6.484375 20.835938 -6.625 21.328125 -6.625 C 22.003906 -6.625 22.5625 -6.390625 23 -5.921875 C 23.445312 -5.460938 23.671875 -4.929688 23.671875 -4.328125 C 23.671875 -3.492188 23.242188 -2.738281 22.390625 -2.0625 C 21.585938 -1.394531 20.46875 -0.804688 19.03125 -0.296875 C 17.59375 0.203125 16.109375 0.453125 14.578125 0.453125 Z M 14.578125 0.453125 "/></g></g></g><g fill="#ffffff" fill-opacity="1"><g transform="translate(691.952903, 246.658169)"><g><path d="M 7.171875 -14.53125 C 7.171875 -15.320312 7.429688 -15.984375 7.953125 -16.515625 C 8.472656 -17.054688 9.128906 -17.328125 9.921875 -17.328125 C 11.179688 -17.328125 12.316406 -17.519531 13.328125 -17.90625 C 14.335938 -18.289062 15.140625 -18.910156 15.734375 -19.765625 C 16.335938 -20.617188 16.640625 -21.753906 16.640625 -23.171875 C 16.640625 -24.210938 16.382812 -25.128906 15.875 -25.921875 C 15.375 -26.722656 14.6875 -27.351562 13.8125 -27.8125 C 12.9375 -28.269531 11.945312 -28.5 10.84375 -28.5 C 9.988281 -28.5 9.1875 -28.34375 8.4375 -28.03125 C 7.6875 -27.726562 7.003906 -27.316406 6.390625 -26.796875 C 5.898438 -26.367188 5.304688 -26.054688 4.609375 -25.859375 C 3.921875 -25.660156 3.226562 -25.820312 2.53125 -26.34375 C 1.789062 -26.894531 1.390625 -27.550781 1.328125 -28.3125 C 1.265625 -29.082031 1.554688 -29.789062 2.203125 -30.4375 C 3.304688 -31.5625 4.601562 -32.4375 6.09375 -33.0625 C 7.582031 -33.695312 9.164062 -34.015625 10.84375 -34.015625 C 12.957031 -34.015625 14.863281 -33.53125 16.5625 -32.5625 C 18.269531 -31.601562 19.628906 -30.3125 20.640625 -28.6875 C 21.648438 -27.0625 22.15625 -25.222656 22.15625 -23.171875 C 22.15625 -21.640625 21.925781 -20.28125 21.46875 -19.09375 C 21.007812 -17.914062 20.359375 -16.90625 19.515625 -16.0625 C 18.671875 -15.21875 17.6875 -14.539062 16.5625 -14.03125 C 15.445312 -13.53125 14.234375 -13.175781 12.921875 -12.96875 C 12.859375 -12.9375 12.800781 -12.90625 12.75 -12.875 C 12.707031 -12.84375 12.6875 -12.796875 12.6875 -12.734375 L 12.6875 -11.03125 C 12.6875 -10.238281 12.425781 -9.570312 11.90625 -9.03125 C 11.382812 -8.5 10.722656 -8.234375 9.921875 -8.234375 C 9.128906 -8.234375 8.472656 -8.5 7.953125 -9.03125 C 7.429688 -9.570312 7.171875 -10.238281 7.171875 -11.03125 Z M 9.703125 0 C 8.804688 0 8.117188 -0.234375 7.640625 -0.703125 C 7.171875 -1.179688 6.9375 -1.867188 6.9375 -2.765625 L 6.9375 -3.546875 C 6.9375 -4.429688 7.171875 -5.109375 7.640625 -5.578125 C 8.117188 -6.054688 8.804688 -6.296875 9.703125 -6.296875 L 10.296875 -6.296875 C 11.179688 -6.296875 11.863281 -6.054688 12.34375 -5.578125 C 12.820312 -5.109375 13.0625 -4.429688 13.0625 -3.546875 L 13.0625 -2.765625 C 13.0625 -1.867188 12.820312 -1.179688 12.34375 -0.703125 C 11.863281 -0.234375 11.179688 0 10.296875 0 Z M 9.703125 0 "/></g></g></g></svg>